<?xml version="1.0" standalone="no"?>
<!DOCTYPE svg PUBLIC "-//W3C//DTD SVG 1.1//EN" "http://www.w3.org/Graphics/SVG/1.1/DTD/svg11.dtd" >
<svg xmlns="http://www.w3.org/2000/svg" xmlns:xlink="http://www.w3.org/1999/xlink" version="1.1">
<metadata>
Created by FontForge 20190801 at Fri Jun 12 08:51:38 2020
 By Jimmy Wärting
Copyright \(c\) by Attype Studio . All Rights reserved.
</metadata>
<defs>
<font id="SummerSplash-Regular" horiz-adv-x="260" >
  <font-face 
    font-family="Summer Splash"
    font-weight="400"
    font-stretch="normal"
    units-per-em="1000"
    panose-1="0 0 0 0 0 0 0 0 0 0"
    ascent="800"
    descent="-200"
    x-height="438"
    cap-height="792"
    bbox="-106 -363 1344 1099"
    underline-thickness="50"
    underline-position="-125"
    stemh="100"
    stemv="100"
    unicode-range="U+000D-2260"
  />
<missing-glyph horiz-adv-x="250" 
 />
    <glyph glyph-name="m_m.liga" unicode="mm" horiz-adv-x="1365" 
d="M57 -14c-32 0 -57 25 -57 56c0 19 71 253 121 390c11 31 15 82 61 82c31 0 52 -23 52 -54c0 -11 -3 -24 -6 -41c28 17 56 30 84 30c65 0 97 -53 114 -114c16 5 97 118 184 118c47 0 94 -34 94 -111c0 -63 -36 -166 -56 -231c-54 -175 -55 -210 -107 -210
c-32 0 -56 27 -56 57c0 34 101 320 101 362v2c-13 -4 -21 -13 -29 -21c-105 -95 -113 -180 -174 -180c-8 0 -16 1 -25 5c-34 11 -41 34 -41 66c0 25 2 58 2 74c0 12 -4 62 -16 62c-3 0 -5 -1 -8 -4c-154 -114 -151 -338 -238 -338zM778 -12c-28 0 -57 22 -57 56
c0 14 5 33 9 46c105 388 99 390 143 390c29 0 51 -20 51 -56c0 -11 -5 -46 -5 -46c0 -4 0 -7 2 -11c21 10 41 16 61 16c27 0 53 -11 76 -36c15 7 93 145 191 145c63 0 95 -54 95 -121c0 -58 -18 -125 -31 -171c-53 -187 -57 -223 -108 -223c-34 0 -57 27 -57 58
c0 29 80 254 80 320v3c-1 1 -3 1 -4 1c-6 0 -9 -6 -13 -9c-113 -109 -106 -254 -186 -254c-22 0 -57 16 -57 56c0 24 6 54 6 84c0 8 0 16 -1 25c-16 -10 -25 -22 -35 -33c-99 -126 -86 -240 -160 -240z" />
    <glyph glyph-name=".notdef" horiz-adv-x="250" 
 />
    <glyph glyph-name="uni0000" horiz-adv-x="0" 
 />
    <glyph glyph-name="uni0000" horiz-adv-x="0" 
 />
    <glyph glyph-name="uni000D" unicode="&#xd;" horiz-adv-x="250" 
 />
    <glyph glyph-name="space" unicode=" " 
 />
    <glyph glyph-name="A" unicode="A" horiz-adv-x="579" 
d="M20 33c0 10 93 740 378 740c107 0 143 -83 143 -190c0 -126 -59 -287 -108 -436c-41 -123 -42 -163 -94 -163c-29 0 -56 22 -56 56c0 30 59 191 87 286c-60 6 -149 10 -151 10c-13 0 -17 -6 -20 -17c-82 -316 -78 -342 -129 -342c-26 0 -50 20 -50 56zM397 659
c-93 0 -147 -172 -162 -218h159c8 0 12 4 14 12c7 32 18 75 18 132c0 45 -3 74 -29 74z" />
    <glyph glyph-name="B" unicode="B" horiz-adv-x="583" 
d="M68 -7c-31 5 -55 35 -55 64c0 8 2 16 6 23c53 98 91 695 387 695c95 0 160 -70 160 -169c0 -146 -114 -202 -122 -217c35 -39 49 -81 49 -128c0 -85 -38 -149 -111 -193c-68 -42 -173 -80 -256 -80c-20 0 -39 2 -58 5zM279 552c-47 -99 -136 -438 -136 -441
c0 -4 2 -7 7 -7c3 0 229 32 229 156c0 96 -126 54 -126 138c0 92 188 45 199 202c0 41 -16 60 -47 60c-58 0 -101 -56 -126 -108z" />
    <glyph glyph-name="C" unicode="C" horiz-adv-x="538" 
d="M47 209c0 193 150 574 379 574c84 0 149 -67 149 -137c0 -37 -22 -59 -51 -59c-70 0 -30 84 -90 84c-131 0 -272 -259 -272 -489c0 -52 26 -125 78 -125c73 0 108 124 165 124c28 0 53 -24 53 -58c0 -53 -110 -180 -218 -180c-99 0 -193 81 -193 266z" />
    <glyph glyph-name="D" unicode="D" horiz-adv-x="600" 
d="M106 -7c-37 0 -85 23 -85 65c0 36 93 381 194 688c7 21 23 34 43 38c26 5 52 8 78 8c154 0 228 -107 228 -251v-30v-6c0 -260 -182 -512 -458 -512zM148 110c185 22 302 216 302 402c0 113 -24 173 -135 173c-19 0 0 46 -167 -575z" />
    <glyph glyph-name="E" unicode="E" horiz-adv-x="488" 
d="M37 102c0 59 13 116 27 173c71 298 130 474 301 474c44 0 90 -5 133 -12c28 -5 45 -25 45 -50c0 -30 -22 -51 -52 -51c-31 0 -55 3 -86 3c-106 0 -123 -38 -173 -192c134 -14 185 -8 185 -66c0 -24 -19 -50 -55 -50c-2 0 -128 5 -150 5c-16 0 -14 -4 -22 -28
c-32 -111 -39 -191 -39 -206c0 -23 10 -21 59 -21c43 0 128 8 129 8c36 0 59 -26 59 -56c0 -20 -11 -39 -30 -49c-28 -16 -141 -18 -167 -18c-101 0 -164 33 -164 136z" />
    <glyph glyph-name="F" unicode="F" horiz-adv-x="442" 
d="M71 8c-25 0 -50 19 -50 50c0 8 1 17 3 24c120 379 99 678 344 678c14 0 28 -1 42 -3c102 -16 162 -24 162 -79c0 -29 -22 -56 -55 -56c-27 0 -117 24 -150 24c-93 0 -109 -114 -133 -207c51 -15 148 12 148 -60c0 -22 -15 -41 -37 -48c-11 -4 -20 -3 -50 -3h-21
c-110 0 -33 32 -151 -275c-4 -9 -14 -45 -52 -45z" />
    <glyph glyph-name="G" unicode="G" horiz-adv-x="561" 
d="M37 177c0 190 172 611 387 611c76 0 144 -59 144 -124c0 -34 -28 -50 -51 -50c-51 0 -43 64 -84 64c-121 0 -282 -327 -282 -503c0 -75 35 -102 68 -102c55 0 105 84 121 149c-58 8 -65 8 -78 14c-18 9 -28 25 -28 45c0 31 24 51 54 51c181 0 221 -21 221 -67
c0 -23 -11 -43 -34 -50c-16 -5 -22 -15 -26 -29c-30 -111 -115 -228 -228 -228c-120 0 -184 99 -184 219z" />
    <glyph glyph-name="H" unicode="H" horiz-adv-x="578" 
d="M80 10c-35 0 -58 28 -58 57c0 7 2 13 3 20c167 609 164 652 222 652c28 0 50 -21 50 -51c0 -19 -52 -210 -55 -237c4 -3 8 -4 11 -4c2 0 3 1 5 1s113 -5 117 -5c19 0 2 2 85 245c17 49 23 93 67 93c27 0 50 -20 50 -50c0 -14 -6 -35 -9 -49
c-196 -733 -179 -713 -233 -713c-31 0 -58 23 -58 57c0 24 77 301 77 304c0 2 -1 4 -1 6c-6 0 -11 1 -17 1c-15 0 -30 -2 -45 -2c-90 -2 -82 1 -88 -22c-70 -267 -67 -303 -123 -303z" />
    <glyph glyph-name="I" unicode="I" horiz-adv-x="378" 
d="M-50 18c0 20 14 46 42 50c63 10 62 -7 70 26c67 266 171 588 171 588v4c-7 3 -14 3 -20 3h-2c-38 0 -60 22 -60 51c0 50 51 52 87 52c103 0 200 6 200 -62c0 -29 -22 -55 -62 -55c-10 0 -18 1 -25 1c-10 0 -11 -4 -15 -20c-109 -402 -117 -404 -160 -580
c7 -9 17 -6 26 -7c43 -5 64 -31 64 -58c0 -29 -25 -55 -68 -55l-197 12c-30 2 -51 24 -51 50z" />
    <glyph glyph-name="J" unicode="J" horiz-adv-x="526" 
d="M136 -51c-92 0 -157 65 -157 168c0 53 16 129 70 129c29 0 57 -21 57 -57c0 -21 -12 -45 -12 -72c0 -30 11 -54 41 -54c148 0 262 580 262 583c0 2 0 5 -1 7c-70 -9 -70 -10 -80 -10c-36 0 -60 26 -60 55c0 20 13 40 33 49c27 13 133 15 151 15c62 0 82 -27 82 -53
c0 -2 -92 -760 -386 -760z" />
    <glyph glyph-name="K" unicode="K" horiz-adv-x="518" 
d="M17 39c0 13 7 36 24 97c178 629 189 643 238 643c27 0 49 -22 49 -51c0 -38 -77 -263 -77 -277v-3c36 24 243 335 302 335c25 0 49 -21 49 -49c0 -11 -4 -22 -11 -33c-44 -60 -86 -121 -132 -179c-158 -199 -156 -190 -156 -206c0 -18 119 -230 119 -287
c0 -36 -29 -57 -57 -57c-23 0 -44 16 -54 43c-33 91 -105 239 -113 244c-9 -5 -8 -15 -10 -22c-60 -209 -59 -254 -114 -254c-28 0 -57 22 -57 56z" />
    <glyph glyph-name="L" unicode="L" horiz-adv-x="498" 
d="M322 -18c-112 7 -280 -2 -280 176c0 105 78 332 117 431c41 100 49 168 104 168c27 0 51 -24 51 -50c0 -15 -157 -445 -157 -549c0 -115 279 -2 279 -120c0 -28 -20 -57 -73 -57c-12 0 -26 1 -41 1z" />
    <glyph glyph-name="M" unicode="M" horiz-adv-x="938" 
d="M73 -2c-32 0 -56 26 -56 57c0 11 3 22 6 33c181 617 200 695 258 695c23 0 50 -17 50 -50c0 -14 -6 -30 -15 -61c23 9 85 107 169 107c99 0 104 -115 108 -160c18 5 80 95 173 95c72 0 131 -51 131 -160c0 -116 -78 -350 -115 -457c-14 -41 -25 -88 -71 -88
c-26 0 -57 19 -57 56c0 31 129 356 129 488c0 12 -1 46 -18 46c-13 0 -28 -10 -38 -17c-136 -101 -152 -269 -223 -269c-25 0 -57 20 -57 54s31 158 31 248c0 13 -1 27 -6 41c-34 -12 -100 -105 -123 -143c-219 -355 -186 -515 -276 -515z" />
    <glyph glyph-name="N" unicode="N" horiz-adv-x="666" 
d="M83 3c-25 0 -57 19 -57 59c0 15 4 28 8 42c160 593 142 664 210 664c26 0 50 -20 50 -49c0 -14 -22 -119 -22 -121c0 -3 0 -6 1 -9c15 8 113 184 230 184c58 0 115 -42 115 -184c0 -136 -63 -393 -106 -523c-5 -16 -16 -60 -61 -60c-31 0 -57 25 -57 57
c0 21 109 346 109 522c0 15 0 29 -2 43c0 7 2 25 -11 25c-7 0 -13 -7 -18 -11c-199 -149 -306 -639 -389 -639z" />
    <glyph glyph-name="O" unicode="O" horiz-adv-x="673" 
d="M53 261c20 221 166 548 379 548c149 0 205 -137 205 -286c0 -225 -156 -559 -382 -559c-142 0 -202 130 -202 288v9zM167 231c0 -64 22 -152 89 -152c110 0 259 204 267 443c-1 75 -15 173 -90 173c-11 0 -23 -2 -35 -7c-124 -48 -77 -144 -142 -163
c-33 -10 -89 -191 -89 -294z" />
    <glyph glyph-name="P" unicode="P" horiz-adv-x="586" 
d="M27 44c0 46 86 768 410 768c111 0 185 -92 185 -201c0 -161 -150 -329 -388 -335c-8 1 -21 1 -34 3c-3 1 -5 1 -7 1c-6 0 -9 -3 -11 -11c-18 -80 -43 -158 -52 -239c-4 -32 -25 -51 -51 -51c-33 0 -52 30 -52 65zM435 698c-113 0 -186 -196 -218 -303c6 -2 7 -4 19 -4
c135 0 271 96 271 221c0 37 -18 86 -72 86z" />
    <glyph glyph-name="Q" unicode="Q" horiz-adv-x="673" 
d="M257 -36c-136 0 -204 129 -204 260c0 222 156 585 379 585c143 0 206 -132 206 -277v-6c-8 -240 -125 -433 -230 -507c-10 -7 -14 -10 -14 -14c0 -3 3 -8 9 -17c52 -79 74 -72 74 -110c0 -34 -26 -56 -55 -56c-26 0 -47 17 -64 36c-72 79 -59 107 -92 107
c0 0 -5 -1 -9 -1zM168 233c0 -34 5 -68 18 -101c15 -37 42 -49 47 -49c2 0 5 1 7 3c-4 29 -8 58 -8 87c0 52 8 112 58 112c30 0 51 -23 51 -51v-2c0 -8 -3 -13 -3 -41c0 -23 3 -47 10 -69h1c26 0 173 178 173 408c0 72 -17 165 -89 165c-10 0 -21 -2 -32 -6
c-127 -47 -81 -144 -143 -163c-39 -12 -90 -200 -90 -293z" />
    <glyph glyph-name="R" unicode="R" horiz-adv-x="599" 
d="M79 -21c-28 0 -52 24 -52 66s86 767 410 767c111 0 185 -92 185 -201c0 -114 -86 -300 -356 -334v-4c0 -8 3 -12 6 -18c93 -197 207 -230 207 -288c0 -32 -26 -56 -56 -56c-17 0 -34 8 -46 20c-181 171 -187 252 -208 279c-10 -29 -34 -129 -39 -182
c-3 -30 -25 -49 -51 -49zM435 698c-112 0 -186 -195 -217 -302c5 -4 10 -5 15 -5c140 0 274 97 274 221c0 37 -19 86 -72 86z" />
    <glyph glyph-name="S" unicode="S" horiz-adv-x="554" 
d="M19 138c0 80 56 182 111 182c30 0 55 -24 55 -55c0 -45 -52 -64 -52 -127c0 -39 28 -72 78 -72c67 0 121 54 121 120c0 155 -192 177 -192 359c0 160 142 296 277 296c77 0 160 -53 160 -174c0 -60 -37 -181 -97 -181c-31 0 -50 27 -50 50c0 27 36 58 36 123
c0 31 -12 67 -49 67c-74 0 -162 -86 -162 -180c0 -112 191 -156 191 -360c0 -128 -102 -235 -237 -235c-111 0 -190 84 -190 187z" />
    <glyph glyph-name="T" unicode="T" horiz-adv-x="508" 
d="M81 727c0 55 52 64 299 64c214 0 299 -1 299 -68c0 -30 -22 -55 -63 -55c0 0 -129 8 -194 8c-14 0 -15 -3 -20 -21c-192 -646 -148 -717 -230 -717c-29 0 -56 23 -56 56c0 80 178 677 178 678v6h-68c-98 0 -94 -1 -94 -1c-29 0 -51 22 -51 50z" />
    <glyph glyph-name="U" unicode="U" horiz-adv-x="680" 
d="M57 178c0 93 43 364 159 559c13 23 33 41 58 41c29 0 50 -24 50 -51c0 -8 -2 -17 -8 -25c-52 -76 -144 -378 -144 -525c0 -23 2 -65 25 -65c165 0 363 671 452 671c30 0 58 -24 58 -57c0 -14 -6 -27 -13 -44c-276 -719 -185 -822 -281 -822c-38 0 -57 39 -57 64
c0 30 36 184 36 186s0 4 -1 6c-15 -5 -88 -119 -194 -119c-97 0 -140 83 -140 181z" />
    <glyph glyph-name="V" unicode="V" horiz-adv-x="526" 
d="M183 -3c-93 0 -94 133 -94 221c0 198 36 371 67 527c6 31 22 55 53 55c29 0 50 -23 50 -51c0 -54 -55 -334 -55 -533c0 -18 0 -37 1 -56c73 61 261 650 348 650c25 0 53 -20 53 -55c0 -19 -7 -33 -14 -50c-226 -499 -302 -708 -409 -708z" />
    <glyph glyph-name="W" unicode="W" horiz-adv-x="881" 
d="M53 190c0 224 152 584 228 584c26 0 50 -21 50 -49c0 -9 -3 -18 -7 -27c-62 -116 -156 -341 -156 -516c0 -16 3 -70 18 -70c4 0 8 2 14 6c124 83 158 324 235 324c30 0 57 -24 57 -57s-50 -162 -50 -247c0 -48 10 -52 22 -52c113 0 290 281 290 623v5v21
c4 30 28 51 57 51c26 0 48 -18 54 -44c3 -12 3 -19 3 -46c0 -288 -168 -725 -405 -725c-75 0 -110 44 -131 109c-16 -6 -70 -85 -149 -85c-66 0 -130 51 -130 195z" />
    <glyph glyph-name="X" unicode="X" horiz-adv-x="489" 
d="M-32 26c0 11 4 22 11 32c2 3 195 222 195 256c0 0 -23 128 -23 274c0 29 1 133 11 160c8 20 26 33 47 33c41 0 50 -35 50 -69c0 -99 8 -220 13 -253c9 1 11 9 14 14c191 312 175 334 227 334c27 0 55 -21 55 -56c0 -52 -268 -472 -268 -480c0 -21 61 -260 61 -282
c0 -35 -30 -56 -56 -56c-87 0 -71 195 -102 217c-21 -27 -142 -174 -185 -174c-27 0 -50 23 -50 50z" />
    <glyph glyph-name="Y" unicode="Y" horiz-adv-x="589" 
d="M29 89c0 47 18 90 40 131c11 21 30 35 53 35c30 0 56 -24 56 -56c0 -30 -34 -69 -34 -109c0 -22 12 -55 43 -55c107 0 196 273 196 300c0 1 -1 3 -2 5c-14 -3 -70 -86 -151 -86c-63 0 -123 51 -123 163c0 157 96 366 170 366c31 0 50 -26 50 -50c0 -11 -4 -22 -12 -31
c-40 -44 -93 -170 -93 -282c0 -16 0 -48 13 -48c100 0 214 390 295 390c31 0 54 -27 54 -56c0 -3 -97 -787 -397 -787c-90 0 -158 79 -158 170z" />
    <glyph glyph-name="Z" unicode="Z" horiz-adv-x="539" 
d="M-33 51c0 76 457 561 464 579c-3 1 -6 2 -9 2c0 0 -140 -8 -162 -8c-55 0 -137 9 -137 64c0 27 21 50 54 50c3 0 6 0 9 -1c17 -4 35 -5 53 -5c50 0 130 16 258 16h17c54 0 82 -33 82 -70c0 -79 -436 -508 -455 -565h54c133 0 264 -3 264 -79c0 -25 -18 -52 -59 -52
c0 0 -98 17 -210 17c-95 0 -153 -11 -153 -11c-43 0 -70 28 -70 63z" />
    <glyph glyph-name="period" unicode="." horiz-adv-x="101" 
d="M-38 46c0 28 23 50 50 50s50 -23 50 -50s-23 -50 -50 -50c-28 0 -50 22 -50 50z" />
    <glyph glyph-name="a" unicode="a" horiz-adv-x="545" 
d="M37 129c0 116 115 333 272 333c28 0 56 -8 82 -27c4 -2 7 -4 10 -4s6 2 11 5c14 13 29 19 43 19c35 0 57 -34 57 -65c0 -9 -1 -17 -3 -25c-94 -391 -82 -410 -140 -410c-31 0 -57 23 -57 58c0 12 1 15 16 89c-17 -7 -85 -103 -181 -103c-62 0 -110 47 -110 130zM313 353
c-61 0 -161 -133 -161 -218c0 -6 1 -12 3 -19c80 21 183 210 183 217c0 10 -9 20 -25 20z" />
    <glyph glyph-name="b" unicode="b" horiz-adv-x="543" 
d="M43 48c0 2 127 628 218 628c27 0 51 -21 51 -49c0 -21 -48 -159 -51 -193c10 1 15 8 22 13c29 19 58 28 85 28c88 0 131 -84 131 -181c0 -154 -73 -328 -228 -328c-62 0 -100 29 -123 45c-12 -3 -17 -22 -49 -22c-28 0 -56 22 -56 59zM203 140c0 -24 26 -59 68 -59
c82 0 113 131 113 214c0 18 -3 64 -20 64c-43 0 -161 -183 -161 -219z" />
    <glyph glyph-name="c" unicode="c" horiz-adv-x="486" 
d="M43 147c0 125 103 321 281 321c71 0 152 -48 152 -127c0 -33 -26 -53 -50 -53c-60 0 -35 70 -92 70c-96 0 -176 -116 -176 -214c0 -46 29 -90 76 -90c59 0 88 73 137 73c31 0 57 -27 57 -57c0 -38 -93 -131 -193 -131c-101 0 -192 82 -192 208z" />
    <glyph glyph-name="d" unicode="d" horiz-adv-x="598" 
d="M191 -54c-82 0 -153 60 -153 170c0 148 134 342 292 342c51 0 82 -22 107 -37c68 187 66 226 119 226c29 0 57 -22 57 -58c0 -14 -5 -28 -9 -41c-183 -547 -129 -657 -218 -657c-33 0 -57 25 -57 57c0 12 6 35 10 56c-10 0 -15 -7 -20 -11c-39 -28 -81 -47 -128 -47z
M336 344c-62 0 -160 -69 -184 -224c2 -21 2 -59 38 -59c99 0 199 225 199 244c0 14 -19 39 -53 39z" />
    <glyph glyph-name="e" unicode="e" horiz-adv-x="495" 
d="M236 -25c-102 0 -198 78 -198 193c0 134 146 280 281 280c73 0 135 -49 135 -122c0 -105 -121 -185 -227 -185c-32 0 -65 8 -65 8c-2 0 -4 0 -6 -2c6 -34 48 -57 83 -57c48 0 120 39 146 39c39 0 55 -33 55 -55c0 -73 -166 -99 -204 -99zM189 254c0 -2 1 -3 1 -6
c8 -1 16 -1 23 -1c71 0 125 57 125 76c0 9 -11 10 -20 10c-50 0 -129 -63 -129 -79z" />
    <glyph glyph-name="f" unicode="f" horiz-adv-x="379" 
d="M59 24c0 12 69 292 69 307c0 5 -3 9 -11 10c-23 4 -41 24 -41 49c0 33 27 52 60 52c19 0 28 1 34 21c58 155 173 229 277 229c45 0 106 -23 106 -69c0 -29 -25 -50 -49 -50c-17 0 -25 12 -54 12c-44 0 -125 -47 -160 -137c42 0 96 -1 96 -57c0 -30 -21 -57 -74 -57
c-14 0 -31 2 -47 2c-17 0 -17 -3 -23 -25c-61 -221 -49 -343 -126 -343c-29 0 -57 22 -57 56z" />
    <glyph glyph-name="g" unicode="g" horiz-adv-x="565" 
d="M-4 -149c0 61 5 137 66 137c32 0 56 -26 56 -59c0 -13 -7 -57 -7 -79c0 -27 11 -39 43 -39c92 0 136 112 163 200c-32 -9 -49 -21 -88 -21c-102 0 -163 87 -163 187c0 135 121 287 255 287c36 0 72 -11 107 -37c15 4 9 77 65 77c29 0 50 -22 50 -52c0 -7 -1 -18 -3 -24
c-101 -437 -151 -731 -388 -731c-99 0 -156 67 -156 154zM325 349c-56 0 -132 -60 -145 -169c1 -34 13 -75 47 -75c76 0 150 140 150 191c0 21 -21 53 -52 53z" />
    <glyph glyph-name="h" unicode="h" horiz-adv-x="529" 
d="M35 40c0 14 144 520 144 523c13 43 18 87 63 87c30 0 51 -23 51 -55c0 -26 -43 -173 -43 -196c0 -2 0 -3 1 -5c9 0 14 7 21 12c29 19 59 33 95 33c61 0 113 -44 113 -132c0 -71 -33 -199 -51 -287c-6 -33 -31 -48 -57 -48c-30 0 -55 23 -55 56c0 37 48 212 48 273
c0 7 -1 14 -2 22c-41 -9 -96 -74 -122 -114c-109 -168 -79 -227 -145 -227c-33 0 -61 24 -61 58z" />
    <glyph glyph-name="i" unicode="i" horiz-adv-x="272" 
d="M30 27c0 35 82 295 96 340c10 31 29 44 52 44c25 0 49 -20 49 -51c0 -8 -1 -16 -3 -25c-74 -327 -87 -368 -141 -368c-28 0 -53 22 -53 60zM166 476c0 28 23 50 50 50s50 -22 50 -50c0 -27 -22 -50 -50 -50s-50 22 -50 50z" />
    <glyph glyph-name="j" unicode="j" horiz-adv-x="444" 
d="M-72 -112c0 51 9 101 60 101c35 0 57 -26 57 -60c0 -6 -1 -13 -1 -19s-1 -12 -1 -18c0 -14 3 -20 13 -20c201 0 192 558 290 558c29 0 51 -22 51 -51c0 -37 -55 -622 -342 -622c-73 0 -127 50 -127 131zM361 442c-28 0 -50 22 -50 50s23 50 50 50s50 -23 50 -50
s-22 -50 -50 -50z" />
    <glyph glyph-name="k" unicode="k" horiz-adv-x="463" 
d="M85 -19c-32 0 -56 26 -56 57c0 9 2 19 5 27c169 525 160 600 224 600c25 0 50 -20 50 -50c0 -18 -54 -211 -54 -218c0 -1 1 -3 1 -4c1 -1 2 -1 3 -1c5 0 7 6 11 8c52 43 71 66 103 66c31 0 56 -24 56 -55c0 -11 -4 -23 -11 -33c-12 -17 -121 -98 -121 -114
s119 -212 119 -255c0 -24 -23 -49 -49 -49c-20 0 -39 10 -49 32c-21 43 -117 201 -120 205c-8 -14 -11 -28 -15 -41c-40 -126 -42 -175 -97 -175z" />
    <glyph glyph-name="l" unicode="l" horiz-adv-x="291" 
d="M29 10c1 10 4 22 7 34c165 566 154 600 212 600c25 0 50 -18 50 -51c0 -22 -51 -233 -102 -407c-52 -176 -55 -237 -112 -237c-30 0 -55 23 -55 60v1z" />
    <glyph glyph-name="m" unicode="m" horiz-adv-x="819" 
d="M87 -26c-29 0 -57 22 -57 56c0 23 52 219 142 456c9 23 28 37 49 37c24 0 50 -18 50 -52c0 -14 -6 -32 -11 -53h4c6 0 10 4 14 7c27 16 57 28 88 28c52 0 98 -32 115 -113c17 7 79 82 163 82s125 -82 125 -163c0 -67 -28 -166 -50 -229c-9 -26 -30 -42 -54 -42
c-26 0 -57 20 -57 57c0 25 46 145 46 210c0 14 -3 52 -17 52c-9 0 -55 -22 -91 -73c-141 -201 -83 -268 -158 -268c-17 0 -70 11 -70 63c0 25 51 198 51 269c0 21 -1 30 -8 39c-137 -32 -198 -363 -274 -363z" />
    <glyph glyph-name="n" unicode="n" horiz-adv-x="531" 
d="M86 -20c-22 0 -56 17 -56 57c0 8 1 15 4 24c112 382 125 444 185 444c27 0 49 -22 49 -49c0 -26 -15 -32 -15 -47c12 0 54 41 112 41c62 0 117 -47 117 -147c0 -69 -29 -189 -44 -256c-6 -30 -29 -48 -55 -48c-31 0 -57 24 -57 57c0 31 41 181 41 247c0 8 0 30 -8 30
c-3 0 -6 -1 -10 -3c-151 -70 -167 -350 -263 -350z" />
    <glyph glyph-name="o" unicode="o" horiz-adv-x="510" 
d="M38 141c0 157 149 297 252 297c76 0 184 -51 184 -188c0 -161 -154 -278 -260 -278s-176 73 -176 169zM153 147c0 -44 20 -60 54 -60h2c90 13 151 93 151 165c0 48 -32 69 -64 69c-44 0 -61 -52 -84 -59c-35 -11 -59 -80 -59 -115z" />
    <glyph glyph-name="p" unicode="p" horiz-adv-x="555" 
d="M50 -274c-34 0 -56 26 -56 59c0 37 81 342 86 363c78 296 79 318 127 318c32 0 44 -22 52 -52h1c8 0 14 5 20 7c25 10 50 17 76 17c103 0 162 -91 162 -194c0 -141 -116 -256 -253 -256c-34 0 -67 8 -101 28c-59 -235 -55 -290 -114 -290zM357 323
c-81 0 -153 -146 -153 -171c0 -11 6 -20 19 -34c12 -12 26 -15 42 -15c74 0 138 64 138 144v1c-1 24 -10 75 -46 75z" />
    <glyph glyph-name="q" unicode="q" horiz-adv-x="543" 
d="M180 9c-85 0 -142 75 -142 153c0 134 138 282 265 282c28 0 56 -7 83 -22c5 -2 8 -4 11 -4c4 0 8 3 12 8c11 14 26 21 43 21c34 0 58 -26 58 -61c0 -37 -131 -442 -144 -601c-3 -39 -33 -57 -58 -57c-29 0 -56 22 -56 62c0 32 36 193 51 264c-31 -19 -71 -45 -123 -45z
M310 334c-53 0 -153 -83 -157 -170c0 -25 11 -39 30 -39c72 0 166 170 166 190c0 13 -25 19 -39 19z" />
    <glyph glyph-name="r" unicode="r" horiz-adv-x="463" 
d="M41 63c0 30 52 233 95 348c25 68 21 121 73 121c25 0 51 -20 51 -54c0 -15 -4 -21 -4 -31c0 -2 0 -5 1 -8h2c8 0 14 6 21 8c20 9 40 12 58 12c63 0 109 -47 109 -123c0 -30 -5 -61 -11 -90c-7 -30 -29 -49 -56 -49c-33 0 -56 25 -56 60c0 15 8 67 8 75c0 3 -1 6 -4 9
c-31 -4 -70 -55 -87 -83c-112 -177 -64 -259 -142 -259c-32 0 -58 24 -58 64z" />
    <glyph glyph-name="s" unicode="s" horiz-adv-x="471" 
d="M187 -53c-88 0 -164 53 -164 142c0 44 17 91 62 91c33 0 57 -24 57 -59c0 -12 -3 -19 -3 -29c0 -16 7 -30 44 -30c23 0 67 11 67 33c0 72 -138 154 -138 269c0 76 77 162 167 165h1c109 0 181 -72 181 -164c0 -47 -12 -107 -59 -107c-26 0 -50 20 -50 56c0 13 3 26 3 41
c0 39 -26 59 -59 59c-37 0 -68 -28 -68 -52c0 -56 138 -146 138 -270c0 -92 -99 -145 -179 -145z" />
    <glyph glyph-name="t" unicode="t" horiz-adv-x="490" 
d="M58 385c0 54 55 52 103 52c42 0 27 130 97 130c24 0 51 -17 51 -50c0 -20 -18 -63 -18 -72c0 -1 1 -3 1 -4c5 -3 9 -3 14 -3c33 0 62 -22 62 -57c0 -31 -23 -57 -65 -57c-10 0 -31 2 -32 2c-7 0 -12 -3 -15 -12c-13 -53 -45 -158 -45 -219c0 -54 21 -64 48 -64
c97 0 55 114 134 114c32 0 55 -29 55 -59c0 -41 -47 -170 -191 -170c-89 0 -160 62 -160 179c0 85 43 229 43 229c0 2 0 4 -1 6c-11 5 -23 2 -34 4c-31 5 -47 26 -47 51z" />
    <glyph glyph-name="u" unicode="u" horiz-adv-x="551" 
d="M182 -26c-62 0 -127 53 -127 181c0 78 31 182 63 250c9 19 23 51 58 51c25 0 49 -20 49 -50c0 -25 -56 -132 -56 -255c0 -14 4 -60 19 -60c112 0 187 374 267 374c38 0 59 -31 59 -66l-98 -500c-9 -26 -31 -42 -55 -42c-32 0 -57 25 -57 58c0 17 11 55 22 129
c-14 -2 -64 -70 -144 -70z" />
    <glyph glyph-name="v" unicode="v" horiz-adv-x="459" 
d="M75 294c0 127 0 181 55 181c21 0 46 -12 50 -43c1 -8 9 -290 27 -305c9 9 13 20 18 30c134 267 127 335 191 335c28 0 54 -22 54 -55c0 -13 -4 -26 -9 -38c-136 -306 -171 -409 -264 -409c-115 0 -122 187 -122 304z" />
    <glyph glyph-name="w" unicode="w" horiz-adv-x="720" 
d="M196 -31c-71 0 -140 55 -140 190c0 134 74 320 151 320c29 0 50 -24 50 -51c0 -10 -3 -21 -11 -29c-63 -74 -75 -166 -75 -266c0 -16 9 -49 26 -49c56 0 72 127 137 127c28 0 56 -21 63 -51c2 -9 3 -27 3 -37v-4c0 -21 0 -49 21 -49c14 0 42 12 66 47
c119 170 59 328 152 328c31 0 57 -24 57 -65c0 -38 -69 -424 -274 -424c-42 0 -82 19 -117 59c-31 -24 -60 -46 -109 -46z" />
    <glyph glyph-name="x" unicode="x" horiz-adv-x="456" 
d="M65 -20c-28 0 -50 24 -50 49c0 9 3 19 8 27c2 4 121 143 126 149c6 6 8 11 8 16c0 20 -78 149 -78 191c0 37 29 57 56 57c51 0 53 -47 110 -161c118 125 133 149 171 149c28 0 51 -22 51 -51c0 -57 -167 -193 -167 -211c0 -12 74 -130 74 -155c0 -29 -23 -50 -49 -50
c-37 0 -47 27 -106 119c-26 -9 -106 -129 -154 -129z" />
    <glyph glyph-name="y" unicode="y" horiz-adv-x="568" 
d="M3 -128c0 56 18 139 74 139c29 0 57 -22 57 -56c0 -24 -16 -48 -16 -82c0 -24 7 -45 31 -45c88 0 190 190 190 240c0 1 -1 3 -1 7c-27 -18 -68 -55 -130 -55c-95 0 -137 70 -137 167c0 93 64 283 133 283c28 0 50 -23 50 -49c0 -9 -3 -18 -8 -27
c-47 -75 -60 -177 -60 -208c0 -12 1 -24 4 -35c3 -12 7 -16 17 -16c16 0 32 9 44 19c144 109 142 301 222 301c34 0 59 -26 59 -66c0 -12 -83 -676 -384 -676c-74 0 -145 55 -145 159z" />
    <glyph glyph-name="z" unicode="z" horiz-adv-x="459" 
d="M14 69c0 52 148 186 232 284c-3 4 -7 5 -10 5c0 0 -41 -3 -61 -3c-43 0 -86 13 -86 56c0 25 20 50 48 50c0 0 15 -1 26 -1c43 0 170 22 201 22c52 0 78 -30 78 -63c0 -19 -10 -36 -23 -51c-55 -61 -224 -228 -227 -249c51 -2 99 -9 148 -16c14 -2 69 -7 69 -60
c0 -33 -25 -57 -57 -57c-37 0 -90 18 -179 18c-42 0 -58 -3 -74 -3c-8 0 -16 0 -25 1c-35 1 -60 34 -60 67z" />
    <glyph glyph-name="zero" unicode="0" horiz-adv-x="579" 
d="M197 -68c-97 0 -166 69 -166 182c0 46 81 663 344 663c111 0 161 -102 161 -200c-1 -91 -45 -645 -339 -645zM195 347c0 -31 -50 -155 -50 -231c0 -11 1 -22 5 -33c7 -27 20 -36 47 -36c47 0 82 21 108 60c58 84 116 353 116 459c0 40 -6 96 -46 96
c-100 0 -180 -287 -180 -302v-13z" />
    <glyph glyph-name="one" unicode="1" horiz-adv-x="333" 
d="M48 46c0 21 146 537 146 619v9c-42 -13 -41 -51 -81 -51c-29 0 -51 23 -51 51c0 44 78 115 148 115c54 0 100 -39 100 -124c0 -76 -47 -232 -81 -366c-66 -264 -68 -310 -124 -310c-29 0 -57 22 -57 57z" />
    <glyph glyph-name="two" unicode="2" horiz-adv-x="507" 
d="M53 -12c-29 0 -68 23 -68 61c0 49 50 59 154 144c157 128 239 328 239 416c0 52 -21 67 -43 67c-65 0 -150 -128 -150 -182c0 -32 -14 -59 -50 -59s-55 37 -55 66c0 71 90 289 255 289c88 0 158 -63 158 -181c0 -111 -85 -330 -259 -486c-4 -4 -10 -6 -11 -15
c102 -22 168 -27 168 -84c0 -29 -22 -55 -57 -55c-31 0 -128 32 -190 32c-53 0 -71 -13 -91 -13z" />
    <glyph glyph-name="three" unicode="3" horiz-adv-x="553" 
d="M159 -29c-98 0 -160 63 -160 156c0 43 19 150 83 150c28 0 56 -22 56 -55c0 -25 -24 -54 -24 -94c0 -34 14 -43 51 -43c91 0 178 80 178 165c0 32 -16 49 -53 56c-43 9 -59 45 -59 67c0 19 10 37 29 49c3 1 163 76 163 200c0 33 -22 56 -51 56c-44 0 -145 -62 -157 -147
c-4 -27 -24 -44 -50 -44c-29 0 -52 22 -52 62c0 85 117 244 258 244c92 0 167 -75 167 -169c0 -102 -61 -181 -133 -248c15 -18 53 -55 53 -128c0 -138 -131 -277 -299 -277z" />
    <glyph glyph-name="four" unicode="4" horiz-adv-x="559" 
d="M71 391c0 112 69 366 143 366c25 0 50 -21 50 -50c0 -7 -2 -15 -5 -23c-47 -99 -74 -230 -74 -285c0 -10 1 -21 2 -31c2 -13 5 -18 11 -18s27 8 56 39c156 167 166 362 244 362c33 0 59 -24 59 -62c0 -12 -3 -24 -6 -36c-187 -672 -171 -678 -233 -678
c-32 0 -56 24 -56 57c0 19 70 261 70 263s-1 4 -2 6c-26 -22 -73 -68 -139 -68c-64 0 -120 49 -120 158z" />
    <glyph glyph-name="five" unicode="5" horiz-adv-x="516" 
d="M185 -6c-113 0 -177 85 -177 135c0 31 24 56 53 56c62 0 46 -75 119 -75c76 0 154 100 154 173c0 42 -21 72 -64 72c-52 0 -98 -32 -131 -32c-36 0 -64 27 -64 65c0 8 23 375 220 375c30 0 74 -11 163 -11c12 0 26 1 26 1c41 0 63 -25 63 -52c0 -26 -18 -47 -48 -50
c-37 -4 -74 -6 -111 -6c-22 0 -88 3 -92 3c-53 0 -76 -103 -92 -183c3 -1 6 -2 9 -2c0 0 33 7 58 7c112 0 178 -91 178 -186c0 -143 -135 -290 -264 -290z" />
    <glyph glyph-name="six" unicode="6" horiz-adv-x="539" 
d="M192 -20c-80 0 -164 54 -164 190c0 196 194 598 412 598c38 0 75 -17 75 -56c0 -25 -20 -49 -44 -49c-1 0 -7 1 -12 1c-89 0 -176 -124 -219 -203c30 6 51 15 87 15c92 0 164 -67 164 -172c0 -143 -146 -324 -299 -324zM142 174c2 -24 -2 -80 51 -80
c81 0 183 122 183 209c0 35 -15 59 -49 59c-61 0 -108 -56 -140 -85c-35 -29 -45 -59 -45 -103z" />
    <glyph glyph-name="seven" unicode="7" horiz-adv-x="487" 
d="M17 -21c-32 0 -57 27 -57 57c0 45 440 546 440 614c0 6 -6 7 -47 7h-31c-10 1 -19 1 -29 1c-54 0 -128 -10 -160 -10c-35 0 -54 23 -54 50c0 21 12 39 33 47c20 8 174 28 228 28c90 0 182 -14 182 -104c0 -129 -464 -690 -505 -690z" />
    <glyph glyph-name="eight" unicode="8" horiz-adv-x="555" 
d="M3 152c0 85 64 202 179 271c7 4 11 8 11 13c0 3 -2 7 -4 12c-19 36 -27 73 -27 109c0 135 115 245 227 245c84 0 148 -54 154 -168c-3 -70 -30 -133 -75 -188c-31 -39 -66 -62 -66 -70c0 -4 4 -7 11 -15c29 -38 48 -79 48 -127c0 -97 -105 -251 -271 -251
c-86 0 -187 57 -187 169zM118 152c0 -37 39 -54 74 -54h1c91 0 153 92 153 138s-75 111 -80 111c-15 0 -148 -104 -148 -195zM276 561c1 -57 36 -98 45 -98c6 0 107 81 107 174c0 29 -10 50 -39 50c-37 0 -106 -40 -113 -126z" />
    <glyph glyph-name="nine" unicode="9" horiz-adv-x="543" 
d="M40 33c0 33 23 49 54 49c111 0 221 195 221 199v5c-28 -7 -49 -17 -86 -17c-82 0 -165 54 -165 165c0 174 159 332 298 332c93 0 165 -66 165 -190c0 -206 -197 -598 -413 -598c-39 0 -74 18 -74 55zM363 651c-84 0 -185 -125 -185 -209c0 -34 16 -58 50 -58
c63 0 129 70 169 116c12 14 10 20 16 75c-1 32 -5 76 -50 76z" />
    <glyph glyph-name="asciitilde" unicode="~" horiz-adv-x="572" 
d="M50 213c-27 0 -50 21 -50 51c0 47 74 158 199 158c113 0 168 -86 245 -86c76 0 92 85 150 85c32 0 56 -28 56 -59c0 -10 -3 -20 -10 -28c-65 -77 -110 -109 -197 -113c-125 2 -164 87 -249 87c-103 0 -82 -95 -144 -95z" />
    <glyph glyph-name="exclam" unicode="!" horiz-adv-x="295" 
d="M107 93c-29 0 -56 23 -56 57c0 8 2 17 4 25c114 377 147 603 210 603c36 0 57 -22 57 -51c0 -5 -1 -10 -2 -15c-161 -638 -165 -619 -213 -619zM23 7c0 27 23 50 50 50s50 -22 50 -50s-22 -50 -50 -50s-50 23 -50 50z" />
    <glyph glyph-name="question" unicode="?" horiz-adv-x="410" 
d="M56 509c0 62 111 252 260 254c107 -1 172 -71 172 -150c0 -83 -68 -161 -127 -220c-164 -161 -109 -302 -197 -302c-30 0 -57 23 -57 57c0 29 36 128 65 182c73 139 201 209 201 281c0 28 -29 37 -51 37c-12 0 -23 -2 -33 -7c-158 -77 -107 -189 -182 -189
c-28 0 -51 21 -51 57zM131 -53c-28 0 -50 22 -50 50c0 27 22 50 50 50c27 0 50 -23 50 -50c0 -28 -22 -50 -50 -50z" />
    <glyph glyph-name="at" unicode="@" horiz-adv-x="761" 
d="M54 270c0 252 221 479 445 479c157 0 267 -118 267 -266c0 -175 -124 -302 -218 -302c-89 0 -100 81 -109 87c-29 -23 -74 -62 -126 -62c-49 0 -92 35 -92 106c0 103 105 295 243 295c56 0 100 -35 113 -92c6 -29 17 -32 17 -59c0 -39 -34 -70 -39 -155h2
c22 0 95 79 95 175c0 105 -69 158 -154 158c-158 0 -329 -177 -329 -359c0 -112 65 -167 168 -167c15 0 37 1 57 1c40 0 61 -27 61 -57c0 -25 -17 -50 -42 -54c-26 -3 -51 -5 -76 -5c-164 0 -283 108 -283 277zM342 342c21 1 128 127 128 141c0 6 -3 9 -9 9
c-43 0 -111 -95 -119 -150z" />
    <glyph glyph-name="numbersign" unicode="#" horiz-adv-x="648" 
d="M41 292c0 46 46 53 81 57c37 5 31 -3 41 34c27 103 31 112 31 118c0 5 -3 6 -21 6h-23c-34 0 -54 23 -54 49c0 55 61 56 115 56h3c11 0 16 5 19 15c33 117 39 146 80 146c26 0 50 -20 50 -50c0 -22 -18 -99 -18 -101c0 -8 5 -8 22 -9c1 0 69 -2 70 -2c38 0 22 154 98 154
c28 0 49 -22 49 -50c0 -10 -1 -13 -22 -109c29 -13 113 2 113 -67c0 -30 -23 -56 -56 -56c-22 0 -56 5 -72 5c-11 0 -12 -4 -17 -21c-17 -64 -24 -91 -24 -97s5 -6 25 -6h31c9 0 17 0 26 -1c31 -1 54 -25 54 -56c0 -28 -20 -51 -50 -55c-15 -2 -68 -3 -70 -3
c-9 0 -19 2 -27 2c-32 0 -28 -26 -36 -53c-31 -112 -35 -173 -90 -173c-32 0 -58 23 -58 57c0 26 32 111 41 165c-19 0 -37 -1 -55 -1c-26 0 -40 1 -40 1c-13 0 -14 -9 -17 -18c-53 -189 -56 -226 -108 -226c-29 0 -56 22 -56 56c0 26 45 155 47 182c-4 2 -8 3 -11 3
c-6 0 -12 -2 -18 -2c-33 0 -53 23 -53 50zM324 500c-14 0 -9 3 -48 -137h55h44c8 0 11 4 13 11c28 111 29 109 29 114c0 6 -4 9 -12 9c-41 2 -81 3 -81 3z" />
    <glyph glyph-name="percent" unicode="%" horiz-adv-x="759" 
d="M568 56c-74 0 -132 64 -132 146c0 87 77 201 153 201c18 0 33 -7 46 -22c20 -23 84 -53 88 -160c-6 -104 -89 -165 -155 -165zM222 57c-27 0 -50 22 -50 49c0 46 195 304 365 540c14 20 30 34 54 34c22 0 56 -15 57 -62c0 -14 -9 -27 -19 -40
c-384 -531 -370 -521 -407 -521zM46 450c0 111 143 201 204 201c38 0 98 -51 98 -127c0 -94 -70 -191 -170 -191c-72 0 -132 47 -132 117zM578 274c-16 0 -27 -58 -27 -70c0 -20 8 -32 18 -32c11 0 39 22 39 54c0 28 -21 48 -30 48zM162 458c0 -8 7 -9 15 -9
c28 0 53 32 55 59v6c0 13 -2 19 -7 19c-12 0 -63 -46 -63 -75z" />
    <glyph glyph-name="asciicircum" unicode="^" horiz-adv-x="572" 
d="M0 514c0 13 6 26 13 34c98 111 170 220 220 220c10 0 21 -3 32 -8c38 -18 36 -52 36 -75c0 -16 -1 -47 -1 -48c0 -71 29 -111 29 -141c0 -32 -25 -56 -56 -56c-57 0 -69 76 -84 138c-21 -1 -92 -114 -139 -114c-27 0 -50 22 -50 50z" />
    <glyph glyph-name="ampersand" unicode="&#x26;" horiz-adv-x="579" 
d="M185 -68c-116 0 -181 75 -181 159c0 69 43 137 86 191c83 102 115 87 115 132v13c0 219 133 362 246 362c74 0 132 -52 132 -129c0 -122 -128 -223 -218 -293c-18 -13 -40 -18 -40 -44c0 -2 21 -113 36 -140c27 16 59 137 122 137c27 0 52 -21 52 -55
c0 -54 -122 -200 -122 -222c0 -20 48 -87 48 -112s-21 -49 -49 -49c-56 0 -73 85 -90 85c-3 0 -7 -1 -11 -4c-40 -22 -82 -31 -126 -31zM222 255c-38 -37 -103 -110 -103 -163c0 -25 14 -46 69 -46c38 0 86 21 86 34c0 0 -30 76 -52 175zM453 674c-62 0 -127 -125 -127 -179
c0 -3 1 -7 3 -11c16 13 138 106 138 174c0 11 -4 16 -14 16z" />
    <glyph glyph-name="asterisk" unicode="*" horiz-adv-x="374" 
d="M93 429c-32 0 -56 26 -56 57c0 17 9 32 22 45c104 102 107 102 107 111c0 17 -59 59 -59 98c0 26 23 49 49 49c28 0 44 -22 66 -43c15 42 35 63 57 63c15 0 32 -10 49 -30c16 4 39 39 75 39c30 0 50 -25 50 -50c0 -14 -7 -29 -20 -39c-8 -7 -94 -82 -100 -95
c89 -94 101 -102 101 -131c0 -32 -27 -56 -57 -56c-47 0 -73 65 -98 73c-10 -21 -9 -89 -68 -89c-24 0 -39 12 -52 33c-21 -6 -25 -35 -66 -35z" />
    <glyph glyph-name="parenleft" unicode="(" horiz-adv-x="432" 
d="M-2 246v3c0 318 261 552 378 552c35 0 56 -23 56 -51c0 -22 -12 -42 -33 -47c-87 -20 -286 -212 -286 -438c0 -213 101 -214 101 -276c0 -29 -25 -55 -55 -55c-67 0 -161 152 -161 312z" />
    <glyph glyph-name="bracketleft" unicode="[" horiz-adv-x="442" 
d="M111 -7c-87 0 -111 35 -111 74c0 6 1 13 3 20c149 610 183 671 291 671c94 0 147 -8 147 -58c0 -28 -20 -51 -56 -51c-13 0 -27 1 -41 1h-24h-13c-14 0 -23 -7 -29 -21c-40 -92 -149 -510 -149 -513c0 -1 0 -3 1 -5c3 -2 7 -2 10 -2c0 0 14 2 33 2c10 0 19 -1 29 -2
c28 -4 58 -30 58 -60c0 -22 -16 -54 -50 -54h-22c-26 0 -51 -2 -77 -2z" />
    <glyph glyph-name="braceleft" unicode="{" horiz-adv-x="468" 
d="M0 392c0 37 29 55 77 78c151 70 113 319 284 319c46 0 103 -33 103 -74c0 -26 -21 -50 -49 -50c-24 0 -37 16 -53 16c-45 0 -63 -200 -185 -285c-4 -3 -8 -6 -8 -10c0 -2 1 -4 3 -7c15 -21 21 -43 21 -65c0 -66 -68 -221 -68 -251c0 -16 31 -9 68 -13
c33 -4 57 -23 57 -54c0 -25 -20 -60 -78 -60c-81 0 -163 18 -163 116c0 66 67 219 67 247s-76 22 -76 93z" />
    <glyph glyph-name="questiondown" unicode="&#xbf;" horiz-adv-x="434" 
d="M163 -47c-105 3 -163 77 -163 148c0 85 68 163 127 221c165 163 109 302 197 302c31 0 57 -24 57 -55c0 -25 -39 -174 -130 -280c-55 -64 -135 -133 -135 -184c0 -27 24 -37 50 -37c14 0 28 3 40 10c153 81 102 185 175 185c31 0 51 -24 51 -55c0 -55 -94 -252 -269 -255
zM358 668c-27 0 -50 23 -50 51c0 27 22 49 50 49s50 -22 50 -49c0 -28 -23 -51 -50 -51z" />
    <glyph glyph-name="exclamdown" unicode="&#xa1;" horiz-adv-x="269" 
d="M0 -13c0 5 1 10 2 16c157 639 169 619 213 619c29 0 57 -23 57 -58c0 -2 -1 -3 -1 -5c-1 -4 -2 -12 -4 -19c-126 -411 -143 -603 -217 -603c-23 0 -50 17 -50 50zM249 658c-27 0 -50 23 -50 50c0 28 22 50 50 50s49 -22 49 -49c0 -28 -22 -51 -49 -51z" />
    <glyph glyph-name="comma" unicode="," horiz-adv-x="125" 
d="M-54 -34c0 34 27 49 38 94c6 28 25 43 49 43c33 0 51 -27 51 -61v-1c-6 -42 -33 -125 -88 -125c-29 0 -50 22 -50 50z" />
    <glyph glyph-name="semicolon" unicode=";" horiz-adv-x="171" 
d="M-40 -34c0 35 28 51 37 93c6 28 25 44 49 44c36 0 51 -28 52 -64c-7 -44 -34 -123 -89 -123c-30 0 -49 22 -49 50zM166 446c-28 0 -50 22 -50 50c0 27 23 50 50 50s50 -23 50 -50s-22 -50 -50 -50z" />
    <glyph glyph-name="colon" unicode=":" horiz-adv-x="150" 
d="M146 446c-27 0 -50 23 -50 50s23 50 50 50c28 0 50 -23 50 -50c0 -28 -22 -50 -50 -50zM-24 46c0 27 23 50 50 50c28 0 50 -22 50 -50s-22 -50 -50 -50c-27 0 -50 23 -50 50z" />
    <glyph glyph-name="quotedblbase" unicode="&#x201e;" horiz-adv-x="416" 
d="M0 -34c0 34 27 48 38 95c7 27 25 42 49 42c33 0 51 -27 52 -61c-5 -35 -31 -126 -90 -126c-27 0 -49 21 -49 50zM135 -34c0 33 27 47 42 107c5 19 25 30 45 30c34 0 52 -27 52 -58c-7 -50 -35 -129 -90 -129c-27 0 -49 21 -49 50z" />
    <glyph glyph-name="quotedblleft" unicode="&#x201c;" horiz-adv-x="359" 
d="M51 529c-28 0 -51 20 -51 59c0 32 30 129 89 129c27 0 48 -21 49 -50c0 -37 -28 -49 -39 -99c-5 -24 -26 -39 -48 -39zM187 529c-36 0 -52 29 -52 65v2c7 45 37 121 88 121c31 0 49 -23 49 -51c0 -34 -27 -52 -36 -92c-7 -28 -26 -45 -49 -45z" />
    <glyph glyph-name="quotedblright" unicode="&#x201d;" horiz-adv-x="359" 
d="M135 578c0 36 32 55 37 94c4 27 28 44 51 44c26 0 50 -21 50 -62c-6 -45 -34 -126 -89 -126c-27 0 -49 22 -49 50zM0 578c0 34 27 49 38 95c7 27 26 43 49 43c28 0 51 -21 51 -61v-2c-7 -46 -35 -125 -88 -125c-29 0 -50 23 -50 50z" />
    <glyph glyph-name="quoteleft" unicode="&#x2018;" horiz-adv-x="175" 
d="M0 592c7 45 35 125 88 125c29 0 50 -22 50 -50c0 -35 -31 -55 -37 -95c-5 -28 -30 -43 -50 -43c-25 0 -51 19 -51 62v1z" />
    <glyph glyph-name="quoteright" unicode="&#x2019;" horiz-adv-x="175" 
d="M0 578c0 36 28 51 37 94c6 27 26 44 49 44c36 0 51 -29 51 -65c-3 -32 -30 -123 -89 -123c-26 0 -48 21 -48 50z" />
    <glyph glyph-name="quotesingle" unicode="'" horiz-adv-x="228" 
d="M50 577c0 3 0 8 1 13c21 95 31 134 75 134c30 0 51 -23 51 -50c0 -6 1 -2 -23 -114c0 -3 -15 -43 -52 -43c-28 0 -52 21 -52 60z" />
    <glyph glyph-name="quotedbl" unicode="&#x22;" horiz-adv-x="77" 
d="M92 578c1 2 1 8 2 14c23 83 25 132 76 132c26 0 49 -21 49 -49c0 -18 -17 -89 -22 -114c-1 -8 -17 -44 -52 -44c-29 0 -52 22 -53 61zM20 518c-33 0 -53 27 -53 57c0 20 23 96 30 115c7 23 27 34 47 34c34 0 50 -30 50 -60c-7 -31 -15 -70 -23 -108
c-4 -14 -24 -38 -51 -38z" />
    <glyph glyph-name="quotesinglbase" unicode="&#x201a;" horiz-adv-x="250" 
d="M51 -105c-28 0 -51 24 -51 60c0 3 0 10 2 17c20 74 25 130 74 130c23 0 50 -18 50 -47c0 -11 -7 -64 -23 -121c-8 -26 -31 -39 -52 -39z" />
    <glyph glyph-name="hyphen" unicode="-" horiz-adv-x="322" 
d="M47 332c-28 5 -47 27 -47 55c0 67 74 59 141 59c200 0 245 -10 245 -62c0 -28 -22 -50 -54 -50c0 0 -27 1 -49 1c-29 0 -58 -1 -86 -5h-65c-71 0 -75 0 -85 2z" />
    <glyph glyph-name="plus" unicode="+" horiz-adv-x="404" 
d="M23 385c0 38 32 58 68 58h16h15c24 0 39 -1 39 -1c12 0 18 4 21 17c10 38 28 76 66 76c28 0 50 -22 50 -49c0 -18 -11 -33 -11 -44c0 -9 8 -7 28 -8c30 -2 113 5 113 -55c0 -61 -68 -52 -124 -52c-16 0 -29 1 -29 1c-13 0 -19 -5 -21 -18c-12 -64 -23 -108 -71 -108
c-32 0 -56 25 -56 57c0 26 12 45 12 69h-44c-46 0 -72 25 -72 57z" />
    <glyph glyph-name="multiply" unicode="&#xd7;" horiz-adv-x="572" 
d="M0 281c0 50 90 94 90 111c0 14 -50 61 -50 101c0 33 27 51 51 51c28 0 39 -18 78 -75c3 -5 7 -8 10 -8c16 0 89 80 134 80c31 0 54 -25 54 -54c0 -40 -37 -59 -119 -121c57 -74 72 -86 72 -116c0 -29 -26 -52 -52 -52c-18 0 -41 9 -58 30c-49 63 -51 69 -57 69
c-14 0 -68 -65 -104 -65c-24 0 -49 21 -49 49z" />
    <glyph glyph-name="divide" unicode="&#xf7;" horiz-adv-x="572" 
d="M0 389c0 27 21 56 66 56c12 0 26 -1 43 -2c212 -16 276 -6 276 -69c0 -28 -20 -49 -48 -51h-13c-35 0 -245 3 -278 10c-27 6 -46 29 -46 56zM94 217c0 28 22 50 50 50c27 0 50 -23 50 -50s-22 -50 -50 -50s-50 22 -50 50zM182 533c0 28 23 50 50 50c28 0 50 -23 50 -50
c0 -28 -22 -50 -50 -50s-50 22 -50 50z" />
    <glyph glyph-name="plusminus" unicode="&#xb1;" horiz-adv-x="572" 
d="M165 336c-36 0 -70 16 -70 57c0 32 22 57 73 57c9 0 50 -1 52 -1c29 0 20 107 83 107c27 0 50 -18 50 -52c0 -22 -12 -49 -12 -57c0 -22 108 9 108 -64c0 -36 -27 -50 -64 -50h-59c-40 0 -17 -123 -98 -123c-29 0 -53 23 -53 59c0 14 3 19 16 64c-9 3 -18 3 -26 3zM0 125
c0 67 87 54 174 54c29 0 144 -1 174 -7c28 -5 47 -28 47 -54c0 -48 -37 -57 -83 -57c-24 0 -73 3 -118 7c-47 3 -93 6 -140 6c-34 1 -54 23 -54 51z" />
    <glyph glyph-name="notequal" unicode="&#x2260;" horiz-adv-x="572" 
d="M53 240c-25 0 -53 19 -53 51c0 46 44 53 88 53h24c29 0 29 11 76 93c-73 5 -133 -1 -133 55c0 54 62 54 109 54c28 0 70 -2 71 -2c15 0 23 6 31 18c71 112 88 125 115 125c25 0 50 -20 50 -49c0 -34 -46 -76 -46 -94c0 -2 0 -3 1 -4c23 -1 53 -2 65 -5
c26 -6 44 -28 44 -54c0 -31 -24 -58 -67 -58c-18 0 -96 5 -98 5c-11 0 -17 -5 -23 -15c-15 -29 -38 -61 -38 -68s8 -6 84 -11c32 -3 61 -27 61 -58c0 -30 -26 -56 -69 -56c-9 0 -126 9 -129 9c-49 0 -76 -172 -151 -172c-28 0 -55 23 -55 56c0 6 1 13 4 20
c3 10 55 101 55 101v2c-2 4 -5 5 -8 5s-6 -1 -8 -1z" />
    <glyph glyph-name="equal" unicode="=" horiz-adv-x="476" 
d="M23 291c0 25 17 44 41 49c3 1 254 18 335 18c41 0 69 -28 69 -58c0 -71 -90 -58 -232 -62h-72c-66 0 -141 -9 -141 53zM78 484c0 27 20 50 57 50c9 0 15 -1 35 -1c36 0 73 3 111 5h143c47 0 72 -26 72 -58c0 -34 -29 -57 -59 -57c-262 0 -359 -7 -359 61z" />
    <glyph glyph-name="backslash" unicode="\" horiz-adv-x="372" 
d="M0 723c0 32 25 56 56 56c27 0 47 -15 56 -45c1 -3 190 -673 190 -690c0 -32 -23 -58 -56 -58c-21 0 -41 12 -51 32c-7 14 -195 687 -195 705z" />
    <glyph glyph-name="bar" unicode="|" horiz-adv-x="199" 
d="M34 252l4 446v7c0 36 13 72 57 72c30 0 57 -23 57 -70c0 -700 13 -723 -60 -723c-30 0 -58 21 -58 70v198z" />
    <glyph glyph-name="slash" unicode="/" horiz-adv-x="305" 
d="M89 -14c-36 0 -60 26 -60 57c0 13 4 25 8 37c191 690 176 700 238 700c33 0 56 -26 56 -57c0 -9 -2 -19 -4 -28c-195 -699 -181 -709 -238 -709z" />
    <glyph glyph-name="registered" unicode="&#xae;" horiz-adv-x="832" 
d="M136 500c-84 0 -136 74 -136 158c0 112 86 236 196 236c71 0 135 -55 135 -172c-5 -109 -91 -222 -195 -222zM197 847c-68 0 -150 -80 -150 -188c0 -67 37 -112 88 -112c67 0 143 74 150 184c-6 87 -46 116 -88 116zM88 617c0 7 15 74 36 134c1 4 2 7 2 10
c2 19 24 27 41 27c34 0 65 -27 65 -60c0 -25 -17 -46 -39 -57c-2 -2 -4 -3 -4 -5c0 -6 27 -33 27 -48c0 -13 -10 -23 -22 -23c-5 0 -10 2 -14 5c-12 8 -32 47 -37 48c-8 -19 -4 -54 -31 -54c-14 0 -24 10 -24 23zM168 744c-4 0 -4 -3 -13 -41c10 5 30 14 30 26
c0 10 -11 15 -17 15z" />
    <glyph glyph-name="copyright" unicode="&#xa9;" horiz-adv-x="897" 
d="M402 -73c-206 0 -334 181 -334 388c0 276 212 579 480 579c173 0 333 -130 333 -422v-8c-14 -267 -230 -537 -479 -537zM184 315c0 -180 105 -274 215 -274c168 0 354 185 368 455c-15 211 -112 283 -217 283c-165 0 -366 -191 -366 -464zM265 331c0 140 127 311 256 311
c70 0 134 -53 134 -145c0 -40 -19 -118 -69 -118c-27 0 -49 20 -49 50c0 20 12 46 12 67c0 20 -15 31 -29 31c-41 0 -141 -96 -141 -198c0 -23 10 -48 34 -48c47 0 65 46 105 46c31 0 57 -25 57 -56c0 -58 -107 -106 -162 -106c-75 0 -148 61 -148 166z" />
    <glyph glyph-name="trademark" unicode="&#x2122;" horiz-adv-x="708" 
d="M234 536c0 8 1 16 4 25c59 193 83 234 135 234c44 0 62 -40 74 -58c4 -7 7 -15 14 -21h1c13 0 67 65 107 65c24 0 60 -20 60 -69c0 -15 -3 -29 -6 -44c-13 -54 -29 -156 -29 -157c-7 -27 -29 -44 -55 -44c-31 0 -56 23 -56 58c0 11 6 52 6 52c0 3 -1 5 -1 8
c-14 -7 -27 -10 -38 -10c-30 0 -53 20 -73 54c-16 -39 -33 -73 -43 -109c-7 -27 -27 -41 -50 -41c-24 0 -50 19 -50 57zM74 699c-6 0 -74 -3 -74 57c0 29 22 55 52 55c170 0 226 3 226 -56c0 -24 -17 -49 -52 -50c-38 -2 -37 -2 -47 -37c-44 -151 -49 -191 -100 -191
c-30 0 -57 23 -57 56c0 28 53 147 53 159c0 2 -1 4 -1 7z" />
    <glyph glyph-name="eth" unicode="&#xf0;" horiz-adv-x="592" 
d="M22 207c0 146 136 284 312 284c37 0 73 -8 109 -23c2 -1 6 -2 8 -2c0 0 1 1 3 1c1 7 1 14 1 21c0 12 -1 24 -1 36c0 7 -3 11 -9 11c-7 0 -16 -6 -32 -6c-31 0 -51 23 -51 51c0 54 69 49 69 67c0 3 -1 6 -2 9c-16 39 -38 45 -38 74c0 27 22 50 51 50
c64 0 81 -104 105 -104c13 0 37 10 59 10c35 0 59 -25 59 -56c0 -73 -99 -50 -99 -76c0 0 4 -49 4 -90c0 -307 -169 -454 -329 -454c-136 0 -219 91 -219 197zM331 375c-105 0 -194 -81 -194 -166c0 -56 43 -78 99 -84c128 2 202 147 202 194c0 3 -1 7 -4 11
c-28 34 -53 45 -103 45z" />
    <glyph glyph-name="partialdiff" unicode="&#x2202;" horiz-adv-x="582" 
d="M218 11c-134 0 -218 88 -218 197c0 144 134 282 312 282c62 0 115 -24 115 -24c1 0 3 1 5 2c1 6 2 13 2 19c0 11 -4 97 -24 159c-19 56 -41 51 -41 84c0 25 21 50 49 50c78 0 130 -167 130 -311c0 -343 -194 -458 -330 -458zM313 375c-117 0 -198 -87 -198 -166
c0 -56 46 -83 103 -83c112 0 197 135 197 190c0 17 -31 59 -102 59z" />
    <glyph glyph-name="Thorn" unicode="&#xde;" horiz-adv-x="645" 
d="M-51 108c0 31 23 55 56 57h21h34v-3c9 0 18 1 26 1c10 0 24 -1 24 -1c15 0 16 3 21 22c62 220 128 457 128 457c0 5 -3 8 -9 8c-5 0 -42 -4 -49 -4c-31 0 -52 23 -52 50c0 52 63 57 116 61c38 2 30 -6 44 33c22 63 27 109 75 109c24 0 49 -22 49 -49
c0 -18 -23 -90 -23 -100c0 -7 4 -8 17 -14c165 -66 215 -214 215 -303c0 -115 -85 -265 -268 -342c-130 -54 -156 -15 -169 -67c-28 -121 -42 -188 -98 -188c-31 0 -53 27 -53 57c0 26 38 138 38 150s-63 5 -91 9c-31 5 -52 28 -52 57zM381 629c-11 0 -131 -447 -132 -457
c191 40 278 170 278 263c0 110 -107 194 -146 194z" />
    <glyph glyph-name="thorn" unicode="&#xfe;" horiz-adv-x="552" 
d="M5 191c0 9 2 18 7 27c18 35 52 32 97 32c12 0 23 -1 23 -1c13 0 19 5 23 18c45 173 68 245 68 255c0 6 -3 8 -12 8c-16 0 -21 -4 -33 -4c-28 0 -51 23 -51 50c0 32 30 53 57 55c20 1 40 3 60 4c45 0 16 144 92 144c28 0 51 -23 51 -56c0 -19 -12 -70 -17 -89
c0 -2 -1 -4 -1 -6c0 -6 4 -9 11 -11c119 -37 175 -126 175 -220c0 -153 -140 -239 -294 -256c-22 -3 -22 -3 -28 -26c-38 -141 -43 -190 -96 -190c-27 0 -56 21 -56 55c0 18 10 46 38 155h-39h-22c-32 4 -53 29 -53 56zM345 508c-6 0 -5 13 -74 -250c83 14 169 55 169 139
c0 77 -80 111 -95 111z" />
    <glyph glyph-name="germandbls" unicode="&#xdf;" horiz-adv-x="632" 
d="M1 -100c0 29 153 882 484 882c106 0 171 -83 171 -176c0 -106 -78 -189 -157 -258c17 -15 76 -62 76 -148c0 -123 -144 -245 -308 -245c-27 0 -96 -1 -96 60c0 31 22 56 62 56h38c109 0 189 80 189 129c0 97 -135 40 -135 135c0 19 10 35 27 48c34 26 189 122 189 225
c0 36 -22 59 -57 59c-256 0 -327 -818 -433 -818c-29 0 -50 23 -50 51z" />
    <glyph glyph-name="endash" unicode="&#x2013;" horiz-adv-x="500" 
d="M363 336c-234 0 -363 -8 -363 53c0 27 18 58 65 58c89 0 293 0 382 -9c35 -4 53 -26 53 -51c0 -28 -19 -51 -59 -51h-78z" />
    <glyph glyph-name="emdash" unicode="&#x2014;" horiz-adv-x="1000" 
d="M0 374c0 78 129 59 573 59c45 0 66 -28 66 -58c0 -28 -19 -57 -68 -57h-183l-314 -1h-5c-7 0 -14 0 -22 1c-27 5 -47 28 -47 56z" />
    <glyph glyph-name="underscore" unicode="_" horiz-adv-x="443" 
d="M-98 -60c0 78 129 59 573 59c45 0 66 -28 66 -58c0 -28 -19 -57 -68 -57h-1h-182l-314 -1h-5c-36 0 -69 15 -69 57z" />
    <glyph glyph-name="bullet" unicode="&#x2022;" horiz-adv-x="376" 
d="M0 384c0 42 35 77 76 77c42 0 78 -35 78 -75c0 -43 -34 -78 -77 -78c-42 0 -77 35 -77 76z" />
    <glyph glyph-name="periodcentered" unicode="&#xb7;" horiz-adv-x="268" 
d="M0 380c0 28 22 50 50 50c27 0 50 -22 50 -50c0 -27 -22 -50 -50 -50s-50 22 -50 50z" />
    <glyph glyph-name="ellipsis" unicode="&#x2026;" horiz-adv-x="804" 
d="M122 54c0 27 23 50 50 50c28 0 50 -22 50 -50c0 -27 -22 -50 -50 -50c-27 0 -50 23 -50 50zM50 8c-28 0 -50 23 -50 50c0 28 22 50 50 50s50 -23 50 -50s-23 -50 -50 -50zM242 54c0 27 22 49 50 49s49 -21 49 -49s-22 -51 -49 -51s-50 24 -50 51z" />
    <glyph glyph-name="dagger" unicode="&#x2020;" 
d="M0 562c0 66 80 56 138 56c28 0 50 3 55 17c40 116 49 140 87 140c27 0 50 -21 50 -49c0 -23 -24 -85 -24 -106h42c41 0 54 0 66 -3c26 -6 42 -26 42 -50c0 -27 -19 -49 -52 -50c-155 -7 -133 -3 -142 -34c-146 -464 -127 -513 -194 -513c-31 0 -56 24 -56 58
c0 31 104 359 134 473c-4 3 -9 4 -14 4c-4 0 -8 -1 -12 -1h-5h-28c-65 0 -87 28 -87 58z" />
    <glyph glyph-name="section" unicode="&#xa7;" horiz-adv-x="513" 
d="M189 -68c-94 0 -189 73 -189 174c0 40 20 73 58 73c96 0 14 -131 131 -131c53 0 125 41 162 167c-2 1 -4 1 -5 1c-9 0 -16 -3 -23 -5c-16 -4 -33 -6 -49 -6c-108 0 -176 82 -176 190c0 173 158 402 338 402c84 0 150 -65 150 -140c0 -41 -11 -76 -52 -76
c-26 0 -46 17 -50 44c-3 17 6 59 -43 59c-65 0 -148 -72 -175 -131c22 5 43 8 63 8c107 0 164 -79 164 -168c0 -203 -93 -461 -304 -461zM324 446c-72 0 -95 -61 -95 -90c0 -26 21 -36 46 -36c47 0 98 44 98 93c0 27 -22 33 -49 33z" />
    <glyph glyph-name="currency" unicode="&#xa4;" horiz-adv-x="572" 
d="M51 110c-29 0 -51 25 -51 50c0 50 66 66 66 94c0 47 1 72 27 115c4 7 6 13 6 18c0 21 -42 45 -42 83c0 29 24 49 49 49c41 0 59 -51 74 -51c2 0 5 1 9 4c27 16 55 26 86 26c10 0 20 -1 31 -4h3c17 0 55 56 92 56c22 0 53 -17 53 -52c0 -51 -63 -60 -63 -83
c0 -1 0 -3 1 -6c3 -15 5 -29 5 -43c0 -45 -18 -87 -44 -126c-7 -10 -11 -15 -11 -19s4 -8 11 -17c15 -21 31 -39 31 -65c0 -28 -20 -52 -45 -52c-68 0 -54 65 -88 65c-18 0 -33 -14 -66 -14c-16 0 -31 4 -46 10c-5 2 -9 3 -12 3c-19 0 -36 -41 -76 -41zM273 382
c-26 0 -89 -51 -93 -112c0 -11 3 -15 10 -15c33 0 92 63 92 112c0 10 -2 15 -9 15z" />
    <glyph glyph-name="logicalnot" unicode="&#xac;" horiz-adv-x="572" 
d="M0 381c0 68 73 52 294 52c51 0 92 -18 92 -68c0 -16 -4 -32 -9 -47c-18 -50 -27 -107 -80 -107c-30 0 -55 26 -55 56c0 13 4 26 10 50c-194 11 -202 12 -218 17c-21 7 -34 26 -34 47z" />
    <glyph glyph-name="ordfeminine" unicode="&#xaa;" horiz-adv-x="357" 
d="M105 463c-54 0 -105 39 -105 110c0 99 112 218 220 218c63 0 74 -41 97 -41c34 0 59 -34 59 -67c0 -6 -1 -12 -3 -18c-44 -149 -29 -204 -95 -204c-46 0 -50 45 -60 49c-22 -14 -64 -47 -113 -47zM120 583c42 26 71 62 104 98c-46 -7 -96 -55 -104 -98z" />
    <glyph glyph-name="onesuperior" unicode="&#xb9;" horiz-adv-x="350" 
d="M41 638c-23 5 -41 24 -41 50c0 19 9 37 28 44c51 18 82 47 113 47c35 0 57 -29 57 -64c0 -8 -2 -16 -4 -24c-51 -198 -51 -246 -108 -246c-30 0 -56 23 -56 57c0 14 1 16 31 131c-7 6 -14 4 -20 5z" />
    <glyph glyph-name="twosuperior" unicode="&#xb2;" horiz-adv-x="350" 
d="M0 486c0 16 8 33 23 45c7 6 130 74 130 131c0 7 -2 11 -8 11c-4 0 -33 -5 -40 -34c-6 -26 -26 -41 -48 -41c-23 0 -52 18 -52 59c0 59 70 128 149 128c66 0 115 -50 115 -120c0 -69 -44 -109 -46 -124c8 -2 61 -6 61 -58c0 -32 -23 -58 -68 -58c0 0 -37 1 -63 1
c-41 0 -81 -3 -81 -3c-36 0 -72 26 -72 63z" />
    <glyph glyph-name="threesuperior" unicode="&#xb3;" horiz-adv-x="350" 
d="M130 409c-76 0 -130 57 -130 109c0 33 27 56 57 56c51 0 47 -51 76 -51c9 0 35 8 35 17c0 4 -4 9 -9 16c-14 14 -20 31 -20 47c0 56 65 64 65 85c0 3 -3 11 -12 11c-2 0 -35 -2 -46 -28c-8 -22 -26 -34 -45 -34c-33 0 -53 26 -53 58c0 42 56 109 146 115
c96 -1 126 -75 126 -121c0 -22 -6 -43 -18 -65c-13 -22 -23 -22 -23 -37c0 -2 0 -5 1 -8c4 -13 5 -25 5 -37c0 -84 -83 -133 -155 -133z" />
    <glyph glyph-name="daggerdbl" unicode="&#x2021;" 
d="M35 238c-66 0 -141 -9 -141 53c0 25 17 44 41 49c2 1 64 5 137 9v76c-87 4 -123 17 -123 59c0 27 19 50 57 50h67l2 164c0 3 -1 5 -1 7c0 36 16 72 58 72c30 0 57 -23 57 -70v-169h106c47 0 72 -26 72 -58c0 -34 -29 -57 -59 -57h-118v-68c32 2 61 3 80 3
c41 0 69 -28 69 -58c0 -56 -56 -60 -149 -61c-1 -244 -11 -255 -62 -255c-29 0 -57 21 -57 70v184h-36z" />
    <glyph glyph-name="brokenbar" unicode="&#xa6;" horiz-adv-x="551" 
d="M0 51c2 18 8 38 14 58c57 198 60 237 108 237c26 0 51 -19 51 -49c0 -5 -1 -10 -2 -14c-57 -230 -49 -293 -114 -293c-31 0 -57 23 -57 60v1zM173 439c-29 0 -57 23 -57 56c0 15 10 54 15 68c50 171 54 211 102 211c29 0 50 -22 50 -50c0 -18 -53 -238 -59 -251
c-9 -22 -30 -34 -51 -34z" />
    <glyph glyph-name="AE" unicode="&#xc6;" horiz-adv-x="718" 
d="M83 -4c-29 0 -51 19 -51 67c0 36 6 72 11 108c52 336 148 621 483 621c16 0 31 -1 46 -2c147 -12 240 15 240 -71c0 -30 -23 -56 -57 -56c-65 0 -159 12 -159 12c-34 0 -30 -32 -37 -55c-1 -3 -56 -175 -56 -184c0 -7 6 -7 23 -9c23 -2 83 -2 83 -58
c0 -31 -22 -54 -62 -54c-22 0 -59 7 -72 7c-10 0 -11 -4 -16 -19c-5 -17 -46 -146 -46 -190c0 -16 9 -19 38 -21c38 -3 75 -5 113 -5c19 0 40 1 40 1c36 0 69 -25 69 -60c0 -19 -12 -39 -34 -48c-16 -8 -25 -8 -85 -8c-133 0 -256 7 -256 139c0 50 25 133 38 179
c3 11 8 22 8 35v2c-24 2 -49 3 -73 3c-75 0 -79 -2 -82 -16c-19 -88 -46 -175 -55 -266c-4 -30 -21 -52 -51 -52zM458 670c-120 -20 -190 -98 -228 -225h25c40 0 117 -3 117 -3c11 0 12 2 17 19c35 115 71 203 71 203c0 2 0 4 -2 6z" />
    <glyph glyph-name="OE" unicode="&#x152;" horiz-adv-x="708" 
d="M502 -35c-257 0 -459 48 -459 311c0 239 208 496 482 496h6c79 0 127 10 168 10c32 0 63 -4 95 -8c34 -5 47 -35 47 -56c0 -30 -25 -56 -56 -56c-28 0 -62 5 -105 5c-100 0 -103 -5 -108 -24c-31 -136 -51 -201 -51 -201v-8h4c8 0 15 1 22 1c49 0 71 -25 71 -54
c0 -7 -1 -15 -5 -22c-15 -33 -45 -32 -72 -32h-28c-28 0 -27 1 -33 -19c-12 -36 -40 -126 -40 -178c0 -30 4 -47 66 -47c23 0 51 4 79 4c45 0 64 -30 64 -59c0 -26 -23 -54 -58 -55c-30 -1 -60 -8 -89 -8zM465 652c-147 -21 -308 -194 -308 -373c0 -106 60 -185 170 -185
c-1 11 -2 22 -2 33c0 113 91 349 140 525z" />
    <glyph glyph-name="ae" unicode="&#xe6;" horiz-adv-x="780" 
d="M10 104c0 157 154 333 288 333c37 0 74 -13 109 -41c3 -3 6 -5 9 -5c4 0 8 3 12 6c56 47 123 68 174 68c82 0 141 -56 141 -128c0 -91 -80 -182 -231 -182c-25 0 -51 3 -77 9c1 -57 29 -92 97 -92c64 0 88 59 136 59c33 0 56 -28 56 -56c0 -17 -8 -33 -23 -46
c-54 -44 -100 -71 -174 -71c-78 0 -138 45 -138 45h-2c-4 -5 -5 -9 -5 -14c0 -3 1 -6 1 -9c0 -30 -22 -60 -58 -60c-30 0 -57 22 -57 69c0 16 3 33 3 50v5c-2 1 -3 1 -4 1c-7 0 -10 -7 -15 -11c-37 -31 -83 -60 -132 -60c-59 0 -110 42 -110 130zM125 107c0 -10 1 -14 6 -14
c40 0 205 194 205 216c0 9 -25 14 -35 14c-62 0 -176 -114 -176 -216zM463 260c7 0 14 -1 21 -1c37 0 72 5 105 23c31 18 39 44 39 52c0 13 -15 16 -29 16c-47 0 -118 -42 -136 -90z" />
    <glyph glyph-name="oe" unicode="&#x153;" horiz-adv-x="688" 
d="M19 148v3c12 181 158 313 278 313c35 0 67 -9 95 -31c7 -5 12 -8 18 -8c5 0 10 2 15 5c31 19 69 30 115 30c76 0 111 -53 111 -110c0 -85 -108 -207 -280 -218c-17 -1 -25 -4 -25 -12c0 -7 16 -55 72 -55c73 0 115 55 156 55c34 0 56 -28 56 -57
c0 -64 -148 -113 -213 -113c-28 0 -54 6 -79 18c-6 3 -11 4 -16 4c-6 0 -12 -2 -18 -6c-34 -23 -72 -36 -112 -36c-120 0 -173 96 -173 218zM297 349c-75 0 -164 -113 -164 -220c0 -36 13 -84 56 -84c15 0 28 5 39 10c9 3 13 7 13 14c0 2 0 5 -1 8c-7 19 -9 39 -9 59
c0 71 27 133 70 188c5 6 12 11 13 20c-4 5 -8 5 -13 5h-4zM526 354c-4 0 -71 -17 -137 -108c90 15 146 88 146 99c0 4 -3 9 -9 9z" />
    <glyph glyph-name="grave" unicode="`" horiz-adv-x="281" 
d="M0 598c0 37 26 57 54 57c27 0 49 -18 53 -53c9 -68 28 -65 28 -93c0 -26 -22 -50 -50 -50c-61 0 -85 112 -85 139z" />
    <glyph glyph-name="acute" unicode="&#xb4;" 
d="M0 503c0 12 4 23 14 32c52 49 42 98 94 98c27 0 54 -21 54 -53c0 -37 -59 -129 -114 -129h-1c-32 2 -47 30 -47 52z" />
    <glyph glyph-name="circumflex" unicode="&#x2c6;" horiz-adv-x="418" 
d="M0 471c0 11 4 22 12 30c82 82 107 148 160 148c31 0 58 -24 66 -52c23 -81 51 -110 51 -139c0 -33 -28 -56 -57 -56c-46 0 -60 49 -82 93c-38 -41 -67 -75 -100 -75c-29 0 -50 25 -50 51z" />
    <glyph glyph-name="caron" unicode="&#x2c7;" horiz-adv-x="418" 
d="M113 422c-84 0 -113 174 -113 187c0 29 22 52 51 52c52 0 46 -53 71 -98c72 70 83 86 114 86c32 0 55 -26 55 -55c0 -10 -3 -21 -11 -31c-32 -40 -115 -141 -167 -141z" />
    <glyph glyph-name="degree" unicode="&#xb0;" horiz-adv-x="428" 
d="M0 530c0 89 111 168 174 168c58 0 126 -52 126 -127c0 -87 -91 -158 -185 -158c-75 2 -115 65 -115 117zM167 587c-10 0 -50 -35 -50 -52c0 -5 4 -7 12 -7h3c32 6 53 32 53 42c0 7 -12 17 -18 17z" />
    <glyph glyph-name="dieresis" unicode="&#xa8;" 
d="M50 500c-28 0 -50 22 -50 50s22 50 50 50c27 0 50 -22 50 -50c0 -27 -23 -50 -50 -50zM131 549c0 27 23 50 50 50c28 0 50 -22 50 -50s-22 -51 -49 -51c-28 0 -51 24 -51 51z" />
    <glyph glyph-name="tilde" unicode="&#x2dc;" 
d="M0 482c0 42 69 119 166 128c34 0 63 -13 88 -35c16 -14 23 -20 32 -20c21 0 58 46 96 46c32 0 55 -28 55 -56c0 -55 -105 -106 -154 -106c-71 0 -99 59 -125 59c-6 0 -13 -3 -21 -7c-54 -30 -50 -59 -87 -59c-23 0 -50 18 -50 50z" />
    <glyph glyph-name="cedilla" unicode="&#xb8;" 
d="M111 -263c-51 0 -111 15 -111 66c0 32 23 57 57 57c18 0 37 -8 57 -8c23 0 33 16 33 23c0 4 -3 7 -8 9c-14 4 -76 0 -76 64c0 8 1 15 3 22c27 96 33 149 81 149c27 0 50 -19 50 -51c0 -13 -8 -49 -11 -61c-1 -3 -2 -6 -2 -8c0 -7 5 -11 13 -16c44 -25 67 -65 67 -107
c0 -63 -57 -139 -153 -139z" />
    <glyph glyph-name="ordmasculine" unicode="&#xba;" horiz-adv-x="376" 
d="M0 530c0 89 111 168 174 168c58 0 126 -52 126 -127c0 -87 -91 -158 -185 -158c-75 2 -115 65 -115 117zM167 587c-10 0 -50 -35 -50 -52c0 -5 4 -7 12 -7h3c32 6 53 32 53 42c0 7 -12 17 -18 17z" />
    <glyph glyph-name="ring" unicode="&#x2da;" 
d="M0 530c0 89 111 168 174 168c58 0 126 -52 126 -127c0 -87 -91 -158 -185 -158c-75 2 -115 65 -115 117zM167 587c-10 0 -50 -35 -50 -52c0 -5 4 -7 12 -7h3c32 6 53 32 53 42c0 7 -12 17 -18 17z" />
    <glyph glyph-name="minus" unicode="&#x2212;" horiz-adv-x="322" 
d="M47 332c-28 5 -47 27 -47 55c0 67 74 59 141 59c200 0 245 -10 245 -62c0 -28 -22 -50 -54 -50c0 0 -27 1 -49 1c-29 0 -58 -1 -86 -5h-65c-71 0 -75 0 -85 2z" />
    <glyph glyph-name="macron" unicode="&#xaf;" 
d="M0 693c0 30 21 56 62 56c11 0 38 -1 59 -1h20h49h31c36 0 57 -22 57 -51c0 -25 -17 -44 -45 -50c-36 -9 -136 -9 -179 -9c-32 0 -54 25 -54 55z" />
    <glyph glyph-name="breve" unicode="&#x2d8;" 
d="M151 627c-85 0 -151 72 -151 132c0 34 23 58 52 58c68 0 27 -78 97 -78c86 0 106 70 157 70c33 0 54 -25 54 -53c0 -53 -98 -128 -198 -128h-3c-2 -1 -5 -1 -8 -1z" />
    <glyph glyph-name="dotaccent" unicode="&#x2d9;" 
d="M0 555c0 27 22 49 50 49c27 0 50 -22 50 -50c0 -26 -23 -50 -50 -50c-28 0 -50 23 -50 51z" />
    <glyph glyph-name="hungarumlaut" unicode="&#x2dd;" horiz-adv-x="520" 
d="M0 681c0 31 62 163 116 163c28 0 52 -22 52 -52c0 -14 -5 -26 -12 -37c-68 -103 -69 -124 -106 -124c-27 0 -50 21 -50 50zM136 660c0 31 52 113 65 132c13 20 29 31 53 31c30 0 52 -24 52 -52c0 -8 -2 -20 -7 -27c-78 -117 -77 -134 -113 -134c-27 0 -50 21 -50 50z" />
    <glyph glyph-name="ogonek" unicode="&#x2db;" 
d="M136 -281c-92 2 -136 57 -136 120c0 76 60 150 172 152c36 1 11 110 82 110c25 0 49 -18 49 -53c0 -6 0 -13 -1 -19c-34 -198 -84 -132 -155 -156c-24 -8 -31 -22 -31 -29c0 -8 8 -10 16 -10c16 0 46 6 60 6c33 0 57 -24 57 -55c0 -61 -73 -62 -113 -66z" />
    <glyph glyph-name="Agrave" unicode="&#xc0;" horiz-adv-x="579" 
d="M20 33c0 10 93 740 378 740c107 0 143 -83 143 -190c0 -126 -59 -287 -108 -436c-41 -123 -42 -163 -94 -163c-29 0 -56 22 -56 56c0 30 59 191 87 286c-60 6 -149 10 -151 10c-13 0 -17 -6 -20 -17c-82 -316 -78 -342 -129 -342c-26 0 -50 20 -50 56zM397 659
c-93 0 -147 -172 -162 -218h81h78c8 0 12 4 14 12c7 32 18 75 18 132c0 45 -3 74 -29 74zM318 960c0 37 27 57 54 57s49 -18 54 -52c8 -69 28 -66 28 -94c0 -25 -23 -49 -50 -49c-62 0 -86 112 -86 138z" />
    <glyph glyph-name="Aacute" unicode="&#xc1;" horiz-adv-x="579" 
d="M70 -23c-26 0 -50 20 -50 56c0 10 93 740 378 740c107 0 143 -83 143 -190c0 -126 -59 -287 -108 -436c-41 -123 -42 -163 -94 -163c-29 0 -56 22 -56 56c0 30 59 191 87 286c-60 6 -149 10 -151 10c-13 0 -17 -6 -20 -17c-82 -316 -78 -342 -129 -342zM397 659
c-93 0 -147 -172 -162 -218h81h78c8 0 12 4 14 12c7 32 18 75 18 132c0 45 -3 74 -29 74zM379 871c0 11 4 22 13 31c53 49 43 98 95 98c27 0 54 -21 54 -53c0 -37 -59 -128 -114 -128h-1c-33 1 -47 30 -47 52z" />
    <glyph glyph-name="Acircumflex" unicode="&#xc2;" horiz-adv-x="579" 
d="M70 -23c-26 0 -50 20 -50 56c0 10 93 740 378 740c107 0 143 -83 143 -190c0 -126 -59 -287 -108 -436c-41 -123 -42 -163 -94 -163c-29 0 -56 22 -56 56c0 30 59 191 87 286c-60 6 -149 10 -151 10c-13 0 -17 -6 -20 -17c-82 -316 -78 -342 -129 -342zM330 817
c-28 0 -50 25 -50 51c0 11 4 21 12 30c82 82 107 148 160 148c31 0 59 -24 66 -52c23 -82 51 -110 51 -139c0 -33 -28 -57 -56 -57c-46 0 -60 50 -82 94c-39 -42 -68 -75 -101 -75zM235 441h81h78c8 0 12 4 14 12c7 32 18 75 18 132c0 45 -3 74 -29 74
c-93 0 -147 -172 -162 -218z" />
    <glyph glyph-name="Atilde" unicode="&#xc3;" horiz-adv-x="579" 
d="M20 33c0 10 93 740 378 740c107 0 143 -83 143 -190c0 -126 -59 -287 -108 -436c-41 -123 -42 -163 -94 -163c-29 0 -56 22 -56 56c0 30 59 191 87 286c-60 6 -149 10 -151 10c-13 0 -17 -6 -20 -17c-82 -316 -78 -342 -129 -342c-26 0 -50 20 -50 56zM248 811
c-24 0 -50 18 -50 50c0 42 69 120 165 129c35 0 64 -14 89 -36c15 -13 23 -20 31 -20c22 0 59 46 96 46c33 0 56 -27 56 -56c0 -55 -106 -105 -155 -105c-70 0 -99 58 -124 58c-7 0 -14 -2 -21 -6c-54 -31 -50 -60 -87 -60zM397 659c-93 0 -147 -172 -162 -218h81h78
c8 0 12 4 14 12c7 32 18 75 18 132c0 45 -3 74 -29 74z" />
    <glyph glyph-name="Adieresis" unicode="&#xc4;" horiz-adv-x="579" 
d="M70 -23c-26 0 -50 20 -50 56c0 10 93 740 378 740c107 0 143 -83 143 -190c0 -126 -59 -287 -108 -436c-41 -123 -42 -163 -94 -163c-29 0 -56 22 -56 56c0 30 59 191 87 286c-60 6 -149 10 -151 10c-13 0 -17 -6 -20 -17c-82 -316 -78 -342 -129 -342zM397 659
c-93 0 -147 -172 -162 -218h81h78c8 0 12 4 14 12c7 32 18 75 18 132c0 45 -3 74 -29 74zM490 818c-27 0 -50 23 -50 51c0 27 22 49 50 49s50 -21 50 -49s-23 -51 -50 -51zM309 870c0 28 22 50 49 50c28 0 51 -22 51 -50c0 -27 -23 -50 -51 -50c-27 0 -49 22 -49 50z" />
    <glyph glyph-name="Aring" unicode="&#xc5;" horiz-adv-x="579" 
d="M70 -23c-26 0 -50 20 -50 56c0 10 93 740 378 740c107 0 143 -83 143 -190c0 -126 -59 -287 -108 -436c-41 -123 -42 -163 -94 -163c-29 0 -56 22 -56 56c0 30 59 191 87 286c-60 6 -149 10 -151 10c-13 0 -17 -6 -20 -17c-82 -316 -78 -342 -129 -342zM416 814
c-74 2 -114 65 -114 117c0 89 111 168 174 168c58 0 126 -52 126 -127c0 -87 -91 -158 -186 -158zM397 659c-93 0 -147 -172 -162 -218h81h78c8 0 12 4 14 12c7 32 18 75 18 132c0 45 -3 74 -29 74zM469 988c-10 0 -50 -35 -50 -52c0 -5 4 -7 12 -7h2c33 6 53 33 53 42
c0 4 -2 7 -5 10c-4 3 -7 7 -12 7z" />
    <glyph glyph-name="Ccedilla" unicode="&#xc7;" horiz-adv-x="538" 
d="M186 -48c-77 25 -139 107 -139 257c0 193 150 574 379 574c84 0 149 -67 149 -137c0 -37 -22 -59 -51 -59c-70 0 -30 84 -90 84c-131 0 -272 -259 -272 -489c0 -52 26 -125 78 -125c73 0 108 124 165 124c28 0 53 -24 53 -58c0 -44 -76 -139 -163 -170
c-3 -14 -6 -28 -8 -35c-1 -3 -2 -6 -2 -8c0 -7 5 -11 13 -15c44 -26 67 -65 67 -107c0 -64 -57 -140 -153 -140c-51 0 -111 16 -111 66c0 33 23 57 57 57c18 0 37 -8 57 -8c23 0 33 16 33 23c0 4 -3 8 -8 9c-14 4 -76 1 -76 64c0 8 1 16 3 23c7 26 13 50 19 70z" />
    <glyph glyph-name="Eth" unicode="&#xd0;" horiz-adv-x="600" 
d="M-29 437c0 67 74 59 141 59h25c24 82 51 167 78 250c7 21 23 34 43 38c26 5 52 8 78 8c154 0 228 -107 228 -251v-30v-6c0 -260 -182 -512 -458 -512c-37 0 -85 23 -85 65c0 22 33 154 82 322c-71 0 -76 0 -85 2c-28 5 -47 27 -47 55zM250 493c84 -6 107 -22 107 -59
c0 -28 -22 -50 -54 -50c-27 1 -54 1 -81 1c-20 -73 -44 -163 -74 -275c185 22 302 216 302 402c0 113 -24 173 -135 173c-14 0 -8 24 -65 -192z" />
    <glyph glyph-name="Dcroat" unicode="&#x110;" horiz-adv-x="600" 
d="M-29 437c0 67 74 59 141 59h25c24 82 51 167 78 250c7 21 23 34 43 38c26 5 52 8 78 8c154 0 228 -107 228 -251v-30v-6c0 -260 -182 -512 -458 -512c-37 0 -85 23 -85 65c0 22 33 154 82 322c-71 0 -76 0 -85 2c-28 5 -47 27 -47 55zM250 493c84 -6 107 -22 107 -59
c0 -28 -22 -50 -54 -50c-27 1 -54 1 -81 1c-20 -73 -44 -163 -74 -275c185 22 302 216 302 402c0 113 -24 173 -135 173c-14 0 -8 24 -65 -192z" />
    <glyph glyph-name="Egrave" unicode="&#xc8;" horiz-adv-x="488" 
d="M37 102c0 59 13 116 27 173c71 298 130 474 301 474c44 0 90 -5 133 -12c28 -5 45 -25 45 -50c0 -30 -22 -51 -52 -51c-31 0 -55 3 -86 3c-106 0 -123 -38 -173 -192c134 -14 185 -8 185 -66c0 -24 -19 -50 -55 -50c-2 0 -128 5 -150 5c-16 0 -14 -4 -22 -28
c-32 -111 -39 -191 -39 -206c0 -23 10 -21 59 -21c43 0 128 8 129 8c36 0 59 -26 59 -56c0 -20 -11 -39 -30 -49c-28 -16 -141 -18 -167 -18c-101 0 -164 33 -164 136zM310 956c0 37 26 57 53 57s49 -17 54 -52c8 -68 28 -65 28 -94c0 -25 -23 -49 -50 -49
c-61 0 -85 112 -85 138z" />
    <glyph glyph-name="Eacute" unicode="&#xc9;" horiz-adv-x="488" 
d="M37 102c0 59 13 116 27 173c71 298 130 474 301 474c44 0 90 -5 133 -12c28 -5 45 -25 45 -50c0 -30 -22 -51 -52 -51c-31 0 -55 3 -86 3c-106 0 -123 -38 -173 -192c134 -14 185 -8 185 -66c0 -24 -19 -50 -55 -50c-2 0 -128 5 -150 5c-16 0 -14 -4 -22 -28
c-32 -111 -39 -191 -39 -206c0 -23 10 -21 59 -21c43 0 128 8 129 8c36 0 59 -26 59 -56c0 -20 -11 -39 -30 -49c-28 -16 -141 -18 -167 -18c-101 0 -164 33 -164 136zM353 868c0 11 4 22 14 31c52 49 42 98 94 98c27 0 54 -21 54 -53c0 -37 -59 -128 -114 -128h-1
c-32 1 -47 30 -47 52z" />
    <glyph glyph-name="Ecircumflex" unicode="&#xca;" horiz-adv-x="488" 
d="M37 102c0 59 13 116 27 173c71 298 130 474 301 474c44 0 90 -5 133 -12c28 -5 45 -25 45 -50c0 -30 -22 -51 -52 -51c-31 0 -55 3 -86 3c-106 0 -123 -38 -173 -192c134 -14 185 -8 185 -66c0 -24 -19 -50 -55 -50c-2 0 -128 5 -150 5c-16 0 -14 -4 -22 -28
c-32 -111 -39 -191 -39 -206c0 -23 10 -21 59 -21c43 0 128 8 129 8c36 0 59 -26 59 -56c0 -20 -11 -39 -30 -49c-28 -16 -141 -18 -167 -18c-101 0 -164 33 -164 136zM327 821c-29 0 -50 25 -50 51c0 11 3 22 12 30c81 82 107 148 160 148c31 0 58 -24 66 -52
c22 -81 51 -110 51 -139c0 -33 -29 -56 -57 -56c-46 0 -60 49 -82 93c-39 -41 -68 -75 -100 -75z" />
    <glyph glyph-name="Edieresis" unicode="&#xcb;" horiz-adv-x="488" 
d="M37 102c0 59 13 116 27 173c71 298 130 474 301 474c44 0 90 -5 133 -12c28 -5 45 -25 45 -50c0 -30 -22 -51 -52 -51c-31 0 -55 3 -86 3c-106 0 -123 -38 -173 -192c134 -14 185 -8 185 -66c0 -24 -19 -50 -55 -50c-2 0 -128 5 -150 5c-16 0 -14 -4 -22 -28
c-32 -111 -39 -191 -39 -206c0 -23 10 -21 59 -21c43 0 128 8 129 8c36 0 59 -26 59 -56c0 -20 -11 -39 -30 -49c-28 -16 -141 -18 -167 -18c-101 0 -164 33 -164 136zM431 861c0 28 23 50 50 50c28 0 50 -22 50 -50c0 -27 -22 -50 -49 -50c-28 0 -51 23 -51 50zM350 813
c-28 0 -50 22 -50 50s22 50 50 50c27 0 50 -23 50 -50s-23 -50 -50 -50z" />
    <glyph glyph-name="Igrave" unicode="&#xcc;" horiz-adv-x="378" 
d="M-50 18c0 20 14 46 42 50c63 10 62 -7 70 26c67 266 171 588 171 588v4c-7 3 -14 3 -20 3h-2c-38 0 -60 22 -60 51c0 50 51 52 87 52c103 0 200 6 200 -62c0 -29 -22 -55 -62 -55c-10 0 -18 1 -25 1c-10 0 -11 -4 -15 -20c-109 -402 -117 -404 -160 -580
c7 -9 17 -6 26 -7c43 -5 64 -31 64 -58c0 -29 -25 -55 -68 -55l-197 12c-30 2 -51 24 -51 50zM244 972c0 37 26 57 54 57c27 0 49 -17 53 -52c9 -68 28 -66 28 -94c0 -25 -22 -49 -50 -49c-61 0 -85 112 -85 138z" />
    <glyph glyph-name="Iacute" unicode="&#xcd;" horiz-adv-x="378" 
d="M-50 18c0 20 14 46 42 50c63 10 62 -7 70 26c67 266 171 588 171 588v4c-7 3 -14 3 -20 3h-2c-38 0 -60 22 -60 51c0 50 51 52 87 52c103 0 200 6 200 -62c0 -29 -22 -55 -62 -55c-10 0 -18 1 -25 1c-10 0 -11 -4 -15 -20c-109 -402 -117 -404 -160 -580
c7 -9 17 -6 26 -7c43 -5 64 -31 64 -58c0 -29 -25 -55 -68 -55l-197 12c-30 2 -51 24 -51 50zM276 869c0 12 4 23 14 32c52 49 42 98 94 98c27 0 54 -21 54 -53c0 -37 -59 -128 -114 -128h-1c-33 1 -47 30 -47 51z" />
    <glyph glyph-name="Icircumflex" unicode="&#xce;" horiz-adv-x="378" 
d="M-50 18c0 20 14 46 42 50c63 10 62 -7 70 26c67 266 171 588 171 588v4c-7 3 -14 3 -20 3h-2c-38 0 -60 22 -60 51c0 50 51 52 87 52c103 0 200 6 200 -62c0 -29 -22 -55 -62 -55c-10 0 -18 1 -25 1c-10 0 -11 -4 -15 -20c-109 -402 -117 -404 -160 -580
c7 -9 17 -6 26 -7c43 -5 64 -31 64 -58c0 -29 -25 -55 -68 -55l-197 12c-30 2 -51 24 -51 50zM220 821c-29 0 -50 25 -50 51c0 11 4 22 12 30c82 82 107 148 160 148c31 0 58 -24 66 -52c23 -81 51 -110 51 -139c0 -33 -28 -56 -57 -56c-46 0 -60 49 -82 93
c-39 -41 -68 -75 -100 -75z" />
    <glyph glyph-name="Idieresis" unicode="&#xcf;" horiz-adv-x="378" 
d="M-50 18c0 20 14 46 42 50c63 10 62 -7 70 26c67 266 171 588 171 588v4c-7 3 -14 3 -20 3h-2c-38 0 -60 22 -60 51c0 50 51 52 87 52c103 0 200 6 200 -62c0 -29 -22 -55 -62 -55c-10 0 -18 1 -25 1c-10 0 -11 -4 -15 -20c-109 -402 -117 -404 -160 -580
c7 -9 17 -6 26 -7c43 -5 64 -31 64 -58c0 -29 -25 -55 -68 -55l-197 12c-30 2 -51 24 -51 50zM386 837c-27 0 -50 23 -50 50c0 28 22 50 50 50s50 -22 50 -50s-23 -50 -50 -50zM204 889c0 27 22 50 50 50s51 -23 51 -50s-23 -50 -51 -50c-27 0 -50 22 -50 50z" />
    <glyph glyph-name="Lslash" unicode="&#x141;" horiz-adv-x="498" 
d="M12 309c-8 22 -5 51 27 63c13 5 31 12 51 19c24 77 51 151 69 198c41 100 49 168 104 168c27 0 51 -24 51 -50c0 -8 -45 -135 -87 -267c29 10 55 18 74 23c25 6 44 -7 51 -27c9 -22 2 -44 -25 -55c-1 0 -2 -1 -4 -1c0 0 -17 -7 -49 -19c-29 -11 -56 -21 -80 -30
c-22 -75 -37 -140 -37 -173c0 -115 279 -2 279 -120c0 -28 -20 -57 -73 -57c-12 0 -26 1 -41 1c-112 7 -280 -2 -280 176c0 34 8 80 20 131c-27 -3 -44 2 -50 20z" />
    <glyph glyph-name="agrave" unicode="&#xe0;" horiz-adv-x="545" 
d="M147 -1c-62 0 -110 47 -110 130c0 116 115 333 272 333c28 0 56 -8 82 -27c4 -2 7 -4 10 -4s6 2 11 5c14 13 29 19 43 19c35 0 57 -34 57 -65c0 -9 -1 -17 -3 -25c-94 -391 -82 -410 -140 -410c-31 0 -57 23 -57 58c0 12 1 15 16 89c-17 -7 -85 -103 -181 -103zM152 135
c0 -6 1 -12 3 -19c80 21 183 210 183 217c0 10 -9 20 -25 20c-61 0 -161 -133 -161 -218zM256 673c0 37 26 57 53 57s49 -18 54 -53c8 -68 28 -65 28 -93c0 -25 -23 -49 -50 -49c-61 0 -85 111 -85 138z" />
    <glyph glyph-name="aacute" unicode="&#xe1;" horiz-adv-x="545" 
d="M37 129c0 116 115 333 272 333c28 0 56 -8 82 -27c4 -2 7 -4 10 -4s6 2 11 5c14 13 29 19 43 19c35 0 57 -34 57 -65c0 -9 -1 -17 -3 -25c-94 -391 -82 -410 -140 -410c-31 0 -57 23 -57 58c0 12 1 15 16 89c-17 -7 -85 -103 -181 -103c-62 0 -110 47 -110 130zM313 353
c-61 0 -161 -133 -161 -218c0 -6 1 -12 3 -19c80 21 183 210 183 217c0 10 -9 20 -25 20zM324 532c-32 1 -47 30 -47 52c0 11 5 22 14 31c53 49 43 98 94 98c27 0 54 -21 54 -53c0 -37 -59 -128 -113 -128h-2z" />
    <glyph glyph-name="acircumflex" unicode="&#xe2;" horiz-adv-x="545" 
d="M37 129c0 116 115 333 272 333c28 0 56 -8 82 -27c4 -2 7 -4 10 -4s6 2 11 5c14 13 29 19 43 19c35 0 57 -34 57 -65c0 -9 -1 -17 -3 -25c-94 -391 -82 -410 -140 -410c-31 0 -57 23 -57 58c0 12 1 15 16 89c-17 -7 -85 -103 -181 -103c-62 0 -110 47 -110 130zM260 532
c-29 0 -50 25 -50 51c0 11 4 22 12 30c81 82 107 148 160 148c31 0 58 -24 66 -52c22 -81 51 -110 51 -139c0 -33 -29 -56 -57 -56c-46 0 -60 49 -82 93c-39 -41 -68 -75 -100 -75zM313 353c-61 0 -161 -133 -161 -218c0 -6 1 -12 3 -19c80 21 183 210 183 217
c0 10 -9 20 -25 20z" />
    <glyph glyph-name="atilde" unicode="&#xe3;" horiz-adv-x="545" 
d="M147 -1c-62 0 -110 47 -110 130c0 116 115 333 272 333c28 0 56 -8 82 -27c4 -2 7 -4 10 -4s6 2 11 5c14 13 29 19 43 19c35 0 57 -34 57 -65c0 -9 -1 -17 -3 -25c-94 -391 -82 -410 -140 -410c-31 0 -57 23 -57 58c0 12 1 15 16 89c-17 -7 -85 -103 -181 -103zM168 510
c-24 0 -50 19 -50 51c0 41 69 119 165 128c35 0 64 -13 89 -35c16 -14 23 -20 31 -20c22 0 59 46 96 46c33 0 56 -28 56 -56c0 -55 -105 -106 -155 -106c-70 0 -99 59 -124 59c-7 0 -14 -3 -21 -7c-54 -30 -50 -60 -87 -60zM313 353c-61 0 -161 -133 -161 -218
c0 -6 1 -12 3 -19c80 21 183 210 183 217c0 10 -9 20 -25 20z" />
    <glyph glyph-name="adieresis" unicode="&#xe4;" horiz-adv-x="545" 
d="M37 129c0 116 115 333 272 333c28 0 56 -8 82 -27c4 -2 7 -4 10 -4s6 2 11 5c14 13 29 19 43 19c35 0 57 -34 57 -65c0 -9 -1 -17 -3 -25c-94 -391 -82 -410 -140 -410c-31 0 -57 23 -57 58c0 12 1 15 16 89c-17 -7 -85 -103 -181 -103c-62 0 -110 47 -110 130zM313 353
c-61 0 -161 -133 -161 -218c0 -6 1 -12 3 -19c80 21 183 210 183 217c0 10 -9 20 -25 20zM274 528c-27 0 -50 22 -50 50s22 50 50 50s50 -23 50 -50s-22 -50 -50 -50zM406 526c-27 0 -50 23 -50 50c0 28 22 50 50 50s49 -22 49 -50c0 -27 -22 -50 -49 -50z" />
    <glyph glyph-name="aring" unicode="&#xe5;" horiz-adv-x="545" 
d="M147 -1c-62 0 -110 47 -110 130c0 116 115 333 272 333c28 0 56 -8 82 -27c4 -2 7 -4 10 -4s6 2 11 5c14 13 29 19 43 19c35 0 57 -34 57 -65c0 -9 -1 -17 -3 -25c-94 -391 -82 -410 -140 -410c-31 0 -57 23 -57 58c0 12 1 15 16 89c-17 -7 -85 -103 -181 -103zM222 610
c0 89 111 168 174 168c58 0 126 -52 126 -127c0 -87 -91 -158 -185 -158c-75 2 -115 65 -115 117zM313 353c-61 0 -161 -133 -161 -218c0 -6 1 -12 3 -19c80 21 183 210 183 217c0 10 -9 20 -25 20zM389 668c-10 0 -50 -36 -50 -53c0 -5 4 -7 12 -7h3c32 6 53 33 53 42
c0 4 -2 7 -6 10c-3 3 -7 8 -12 8z" />
    <glyph glyph-name="ccedilla" unicode="&#xe7;" horiz-adv-x="486" 
d="M43 147c0 125 103 321 281 321c71 0 152 -48 152 -127c0 -33 -26 -53 -50 -53c-60 0 -35 70 -92 70c-96 0 -176 -116 -176 -214c0 -46 29 -90 76 -90c59 0 88 73 137 73c31 0 57 -27 57 -57c0 -33 -72 -109 -158 -127c-2 -14 -6 -29 -8 -36c-1 -3 -1 -6 -1 -8
c0 -7 4 -11 12 -15c44 -26 68 -65 68 -107c0 -64 -57 -140 -154 -140c-50 0 -110 16 -110 67c0 32 22 56 57 56c18 0 36 -8 56 -8c23 0 34 17 34 23c0 4 -3 8 -9 9c-13 5 -76 1 -76 64c0 8 1 16 3 23c9 32 16 60 23 82c-70 28 -122 99 -122 194z" />
    <glyph glyph-name="dcroat" unicode="&#x111;" horiz-adv-x="598" 
d="M191 -54c-82 0 -153 60 -153 170c0 148 134 342 292 342c51 0 82 -22 107 -37c6 16 12 32 17 46h-10c-27 1 -46 18 -46 39c0 22 18 40 54 40h28c28 81 38 101 76 101c29 0 57 -22 57 -58c0 -14 -5 -28 -9 -41c-1 -1 -1 -3 -2 -4c24 -4 37 -17 37 -35
c0 -31 -37 -36 -60 -38c-153 -480 -108 -580 -193 -580c-33 0 -57 25 -57 57c0 12 6 35 10 56c-10 0 -15 -7 -20 -11c-39 -28 -81 -47 -128 -47zM336 344c-62 0 -160 -69 -184 -224c2 -21 2 -59 38 -59c99 0 199 225 199 244c0 14 -19 39 -53 39z" />
    <glyph glyph-name="egrave" unicode="&#xe8;" horiz-adv-x="495" 
d="M38 168c0 134 146 280 281 280c73 0 135 -49 135 -122c0 -105 -121 -185 -227 -185c-32 0 -65 8 -65 8c-2 0 -4 0 -6 -2c6 -34 48 -57 83 -57c48 0 120 39 146 39c39 0 55 -33 55 -55c0 -73 -166 -99 -204 -99c-102 0 -198 78 -198 193zM310 503c-61 0 -85 111 -85 138
c0 37 26 57 53 57s49 -18 54 -53c8 -68 28 -65 28 -93c0 -25 -22 -49 -50 -49zM189 254c0 -2 1 -3 1 -6c8 -1 16 -1 23 -1c71 0 125 57 125 76c0 9 -11 10 -20 10c-50 0 -129 -63 -129 -79z" />
    </font>
</defs>
</svg>
